<?xml version="1.0" encoding="utf-8"?>
<!-- Generator: Adobe Illustrator 17.1.0, SVG Export Plug-In . SVG Version: 6.00 Build 0)  -->
<!DOCTYPE svg PUBLIC "-//W3C//DTD SVG 1.1//EN" "http://www.w3.org/Graphics/SVG/1.1/DTD/svg11.dtd">
<svg version="1.1" id="Layer_1" xmlns="http://www.w3.org/2000/svg" xmlns:xlink="http://www.w3.org/1999/xlink" x="0px" y="0px"
	 viewBox="0 0 100 103.5" enable-background="new 0 0 100 103.5" xml:space="preserve">
<g>
	<rect x="-474.9" y="46.9" fill="#FFFFFF" width="28.4" height="3.2"/>
	<rect x="-474.9" y="54.1" fill="#FFFFFF" width="28.4" height="3.2"/>
	<rect x="-474.9" y="61.4" fill="#FFFFFF" width="20.4" height="3.2"/>
	<rect x="-447.6" y="15.9" fill="#FFFFFF" width="10.2" height="3.2"/>
	<rect x="-415.4" y="34.8" fill="#FFFFFF" width="10.2" height="3.2"/>
	<path fill="#FFFFFF" d="M-430.3,25.7V6.8h-54.3v71.1h32.8v18.9h54.3V25.7H-430.3z M-481.3,10h47.8v64.6h-47.8V10z M-400.7,93.5
		h-47.8V77.8h18.2v-1.4h16.6v-3.2h-16.6v-4h16.6v-3.2h-16.6V29h29.6V93.5L-400.7,93.5z"/>
	<rect x="-441.3" y="80.4" fill="#FFFFFF" width="22.6" height="3.2"/>
</g>
<path fill="#FFFFFF" d="M-187,11.8c-14.7,0-26.7,12-26.7,26.7c0,27,26.7,53.3,26.7,53.3s26.7-26.2,26.7-53.3
	C-160.3,23.7-172.3,11.8-187,11.8z M-187,58.4c-11,0-20-8.9-20-20c0-11,8.9-20,20-20s20,8.9,20,20S-176,58.4-187,58.4z"/>
<g>
	<path fill="#FFFFFF" d="M94.4,50.4c0-0.1,0-0.2-0.1-0.3c-0.4-0.9-11.7-21.7-45.2-21.7C23,28.5,7,48.5,5.9,49.8l0,0l0,0
		c0,0.1-0.1,0.1-0.1,0.2c-0.1,0.1-0.1,0.3-0.2,0.4c0,0.1,0,0.2,0,0.4c0,0.1,0,0.2,0,0.4c0,0.1,0.1,0.3,0.1,0.4c0,0.1,0,0.2,0.1,0.3
		c0.4,0.9,11.7,21.7,45.2,21.7c26.1,0,42.2-20,43.2-21.3l0,0l0,0c0-0.1,0.1-0.2,0.1-0.2c0.1-0.1,0.1-0.3,0.2-0.4c0-0.1,0-0.2,0-0.4
		s0-0.2,0-0.4C94.5,50.7,94.4,50.5,94.4,50.4z M50,71.5c-11.3,0-20.5-9.2-20.5-20.5S38.8,30.5,50,30.5c11.3,0,20.5,9.2,20.5,20.5
		S61.3,71.5,50,71.5z"/>
	<path fill="#FFFFFF" d="M50,41c-5.5,0-10,4.5-10,10s4.5,10,10,10s10-4.5,10-10C60,45.5,55.6,41,50,41z"/>
</g>
<g>
	<path fill="#FFFFFF" d="M282.4,12.8c1,0,1.9-0.9,1.9-1.9S283.4,9,282.4,9h-34.6c-1,0-1.9,0.9-1.9,1.9v21c0,0.4-0.5,0.5-0.8,0.3
		l-6.8-7.1c-0.8-0.8-1.9-0.8-2.7,0c-0.8,0.8-0.8,2,0,2.8l10.9,11c0.4,0.4,0.9,0.6,1.4,0.6c0.5,0,1-0.3,1.4-0.6l10.9-11
		c0.8-0.8,0.8-2,0-2.8c-0.8-0.8-1.9-0.8-2.7,0l-6.8,7c-0.3,0.3-0.8,0.1-0.8-0.3V13.2c0-0.3,0.1-0.4,0.4-0.4
		C250.4,12.8,282.4,12.8,282.4,12.8z"/>
	<path fill="#FFFFFF" d="M277.5,90.9c0-1.1,0.9-1.9,1.9-1.9h24.7c0.3,0,0.4-0.1,0.4-0.4V69.7c0-0.4-0.5-0.5-0.8-0.3l-6.8,7
		c-0.8,0.8-1.9,0.8-2.7,0s-0.8-2,0-2.8l10.9-11c0.4-0.4,0.9-0.6,1.4-0.6c0.5,0,1,0.3,1.4,0.6l10.9,11c0.4,0.4,0.5,0.9,0.5,1.4
		c0,0.5-0.3,1.1-0.6,1.5c-0.8,0.6-2,0.5-2.7-0.3l-7-6.8c-0.3-0.3-0.8-0.1-0.8,0.3v21c0,1.1-0.9,1.9-1.9,1.9h-27
		C278.4,92.8,277.5,91.9,277.5,90.9z"/>
	<g>
		<ellipse fill="#FFFFFF" cx="305.9" cy="18.4" rx="10.1" ry="11.7"/>
		<path fill="#FFFFFF" d="M311.6,36.5l-4.6,4.7c-0.6,0.6-1.6,0.6-2.3,0l-4.6-4.7c-0.5-0.5-1.1-0.6-1.8-0.4c-6.5,2.8-11,9-11.7,16.4
			c-0.1,0.9,0.6,1.6,1.4,1.6h35.4c0.9,0,1.5-0.8,1.4-1.6c-0.6-7.4-5.2-13.7-11.7-16.4C312.7,35.9,312.1,36,311.6,36.5z"/>
	</g>
	<g>
		<ellipse fill="#FFFFFF" cx="256.1" cy="61" rx="10.1" ry="11.7"/>
		<path fill="#FFFFFF" d="M261.8,79.1l-4.6,4.6c-0.6,0.6-1.6,0.6-2.3,0l-4.6-4.7c-0.5-0.5-1.1-0.6-1.8-0.4
			c-6.5,2.9-11,9.1-11.7,16.5c-0.1,0.9,0.6,1.6,1.4,1.6h35.4c0.9,0,1.5-0.8,1.4-1.6c-0.6-7.4-5.2-13.7-11.7-16.4
			C262.9,78.5,262.3,78.6,261.8,79.1z"/>
	</g>
</g>
</svg>
