<?xml version="1.0" encoding="utf-8"?>
<!-- Generator: Adobe Illustrator 17.1.0, SVG Export Plug-In . SVG Version: 6.00 Build 0)  -->
<!DOCTYPE svg PUBLIC "-//W3C//DTD SVG 1.1//EN" "http://www.w3.org/Graphics/SVG/1.1/DTD/svg11.dtd">
<svg version="1.1" id="Layer_1" xmlns="http://www.w3.org/2000/svg" xmlns:xlink="http://www.w3.org/1999/xlink" x="0px" y="0px"
	 viewBox="0 0 200 207" enable-background="new 0 0 200 207" xml:space="preserve">
<g>
	<rect x="22.1" y="92.2" fill="#F9F9F9" width="65.3" height="7.4"/>
	<rect x="22.1" y="109" fill="#F9F9F9" width="65.3" height="7.4"/>
	<rect x="22.1" y="125.8" fill="#F9F9F9" width="46.9" height="7.4"/>
	<rect x="84.9" y="21.3" fill="#F9F9F9" width="23.5" height="7.4"/>
	<rect x="158.9" y="64.7" fill="#F9F9F9" width="23.5" height="7.4"/>
	<path fill="#F9F9F9" d="M124.6,43.7V0.1H0v163.2h75.4v43.5H200V43.7H124.6z M7.4,7.6h109.8v148.3H7.4V7.6z M192.6,199.4H82.8v-36.1
		h41.9v-3.3h38.2v-7.4h-38.2v-9.3h38.2v-7.4h-38.2V51.2h67.9L192.6,199.4L192.6,199.4z"/>
	<rect x="99.2" y="169.2" fill="#F9F9F9" width="51.9" height="7.4"/>
</g>
</svg>
