<?xml version="1.0" encoding="utf-8"?>
<!-- Generator: Adobe Illustrator 17.1.0, SVG Export Plug-In . SVG Version: 6.00 Build 0)  -->
<!DOCTYPE svg PUBLIC "-//W3C//DTD SVG 1.1//EN" "http://www.w3.org/Graphics/SVG/1.1/DTD/svg11.dtd">
<svg version="1.1" id="Layer_1" xmlns="http://www.w3.org/2000/svg" xmlns:xlink="http://www.w3.org/1999/xlink" x="0px" y="0px"
	 viewBox="0 0 100 103.5" enable-background="new 0 0 100 103.5" xml:space="preserve">
<g>
	<rect x="-704.9" y="47.6" fill="#FFFFFF" width="28.4" height="3.2"/>
	<rect x="-704.9" y="54.9" fill="#FFFFFF" width="28.4" height="3.2"/>
	<rect x="-704.9" y="62.2" fill="#FFFFFF" width="20.4" height="3.2"/>
	<rect x="-677.6" y="16.7" fill="#FFFFFF" width="10.2" height="3.2"/>
	<rect x="-645.4" y="35.6" fill="#FFFFFF" width="10.2" height="3.2"/>
	<path fill="#FFFFFF" d="M-660.3,26.5V7.5h-54.3v71.1h32.8v18.9h54.3V26.5H-660.3z M-711.3,10.7h47.8v64.6h-47.8V10.7z M-630.7,94.3
		h-47.8V78.5h18.2v-1.4h16.6v-3.2h-16.6v-4h16.6v-3.2h-16.6V29.7h29.6V94.3L-630.7,94.3z"/>
	<rect x="-671.3" y="81.2" fill="#FFFFFF" width="22.6" height="3.2"/>
</g>
<path fill="#FFFFFF" d="M-417,12.5c-14.7,0-26.7,12-26.7,26.7c0,27,26.7,53.3,26.7,53.3s26.7-26.2,26.7-53.3
	C-390.3,24.5-402.3,12.5-417,12.5z M-417,59.2c-11,0-20-8.9-20-20c0-11,8.9-20,20-20s20,8.9,20,20S-406,59.2-417,59.2z"/>
<g>
	<path fill="#FFFFFF" d="M-135.6,51.2c0-0.1,0-0.2-0.1-0.3c-0.4-0.9-11.7-21.7-45.2-21.7c-26.1,0-42.2,20-43.2,21.3l0,0l0,0
		c0,0.1-0.1,0.1-0.1,0.2c-0.1,0.1-0.1,0.3-0.2,0.4c0,0.1,0,0.2,0,0.4c0,0.1,0,0.2,0,0.4c0,0.1,0.1,0.3,0.1,0.4c0,0.1,0,0.2,0.1,0.3
		c0.4,0.9,11.7,21.7,45.2,21.7c26.1,0,42.2-20,43.2-21.3l0,0l0,0c0-0.1,0.1-0.2,0.1-0.2c0.1-0.1,0.1-0.3,0.2-0.4c0-0.1,0-0.2,0-0.4
		s0-0.2,0-0.4C-135.5,51.4-135.6,51.3-135.6,51.2z M-180,72.2c-11.3,0-20.5-9.2-20.5-20.5s9.2-20.5,20.5-20.5
		c11.3,0,20.5,9.2,20.5,20.5S-168.7,72.2-180,72.2z"/>
	<path fill="#FFFFFF" d="M-180,41.8c-5.5,0-10,4.5-10,10s4.5,10,10,10s10-4.5,10-10C-170,46.2-174.4,41.8-180,41.8z"/>
</g>
<g>
	<path fill="#FFFFFF" d="M52.4,13.6c1,0,1.9-0.9,1.9-1.9s-0.9-1.9-1.9-1.9H17.8c-1,0-1.9,0.9-1.9,1.9v21c0,0.4-0.5,0.5-0.8,0.3
		l-6.8-7.1c-0.8-0.8-1.9-0.8-2.7,0c-0.8,0.8-0.8,2,0,2.8l10.9,11c0.4,0.4,0.9,0.6,1.4,0.6c0.5,0,1-0.3,1.4-0.6l10.9-11
		c0.8-0.8,0.8-2,0-2.8c-0.8-0.8-1.9-0.8-2.7,0l-6.8,7C20.5,33.1,20,33,20,32.6V14c0-0.3,0.1-0.4,0.4-0.4
		C20.4,13.6,52.4,13.6,52.4,13.6z"/>
	<path fill="#FFFFFF" d="M47.5,91.7c0-1.1,0.9-1.9,1.9-1.9h24.7c0.3,0,0.4-0.1,0.4-0.4V70.5c0-0.4-0.5-0.5-0.8-0.3l-6.8,7
		c-0.8,0.8-1.9,0.8-2.7,0c-0.8-0.8-0.8-2,0-2.8l10.9-11c0.4-0.4,0.9-0.6,1.4-0.6s1,0.3,1.4,0.6l10.9,11c0.4,0.4,0.5,0.9,0.5,1.4
		c0,0.5-0.3,1.1-0.6,1.5c-0.8,0.6-2,0.5-2.7-0.3l-7-6.8c-0.3-0.3-0.8-0.1-0.8,0.3v21c0,1.1-0.9,1.9-1.9,1.9h-27
		C48.4,93.6,47.5,92.7,47.5,91.7z"/>
	<g>
		<ellipse fill="#FFFFFF" cx="75.9" cy="19.2" rx="10.1" ry="11.7"/>
		<path fill="#FFFFFF" d="M81.6,37.3L77,42c-0.6,0.6-1.6,0.6-2.3,0l-4.6-4.7c-0.5-0.5-1.1-0.6-1.8-0.4c-6.5,2.8-11,9-11.7,16.4
			c-0.1,0.9,0.6,1.6,1.4,1.6h35.4c0.9,0,1.5-0.8,1.4-1.6c-0.6-7.4-5.2-13.7-11.7-16.4C82.7,36.7,82.1,36.8,81.6,37.3z"/>
	</g>
	<g>
		<ellipse fill="#FFFFFF" cx="26.1" cy="61.8" rx="10.1" ry="11.7"/>
		<path fill="#FFFFFF" d="M31.8,79.9l-4.6,4.6c-0.6,0.6-1.6,0.6-2.3,0l-4.6-4.7c-0.5-0.5-1.1-0.6-1.8-0.4c-6.5,2.9-11,9.1-11.7,16.5
			c-0.1,0.9,0.6,1.6,1.4,1.6h35.4c0.9,0,1.5-0.8,1.4-1.6c-0.6-7.4-5.2-13.7-11.7-16.4C32.9,79.3,32.3,79.4,31.8,79.9z"/>
	</g>
</g>
</svg>
