<?xml version="1.0" encoding="utf-8"?>
<!-- Generator: Adobe Illustrator 17.1.0, SVG Export Plug-In . SVG Version: 6.00 Build 0)  -->
<!DOCTYPE svg PUBLIC "-//W3C//DTD SVG 1.1//EN" "http://www.w3.org/Graphics/SVG/1.1/DTD/svg11.dtd">
<svg version="1.1" id="Layer_1" xmlns="http://www.w3.org/2000/svg" xmlns:xlink="http://www.w3.org/1999/xlink" x="0px" y="0px"
	 viewBox="0 0 1200 800" enable-background="new 0 0 1200 800" xml:space="preserve">
<path d="M938.9,662.3l-113.7-87.4c32.8-50.3,52.5-109.3,52.5-174.9c2.2-172.7-139.9-314.8-312.6-314.8S250.3,227.3,250.3,400
	s142.1,314.8,314.8,314.8c87.4,0,166.1-35,223-94l115.9,87.4c10.9,8.7,30.6,6.6,39.4-6.6C954.2,688.6,952,671.1,938.9,662.3z
	 M565.1,679.8c-153,0-279.8-124.6-279.8-279.8s126.8-279.8,279.8-279.8S844.9,244.8,844.9,400S718.1,679.8,565.1,679.8z"/>
</svg>
