<?xml version="1.0" standalone="no"?>
<!DOCTYPE svg PUBLIC "-//W3C//DTD SVG 1.1//EN" "http://www.w3.org/Graphics/SVG/1.1/DTD/svg11.dtd" >
<svg xmlns="http://www.w3.org/2000/svg" xmlns:xlink="http://www.w3.org/1999/xlink" version="1.1">
<metadata>
Created by FontForge 20150318 at Sun Sep  6 22:08:00 2015
 By uniteet7
Copyright (c) 2008 by BPG InfoTech. All rights reserved.
</metadata>
<defs>
<font id="BPG_Paata_New" horiz-adv-x="500" >
  <font-face 
    font-family="BPG_Paata_New"
    font-weight="400"
    font-style="italic"
    font-stretch="normal"
    units-per-em="1000"
    panose-1="2 0 5 6 0 0 0 2 0 4"
    ascent="730"
    descent="-270"
    x-height="448"
    cap-height="662"
    bbox="-77 -279 1009 755"
    underline-thickness="24"
    underline-position="-25"
    slope="-25"
    unicode-range="U+0020-20AC"
  />
<missing-glyph horiz-adv-x="847" 
d="M165 67h559v620h-559v-620zM151 48v658h586v-658h-586z" />
    <glyph glyph-name=".notdef" horiz-adv-x="847" 
d="M165 67h559v620h-559v-620zM151 48v658h586v-658h-586z" />
    <glyph glyph-name=".null" horiz-adv-x="0" 
 />
    <glyph glyph-name="nonmarkingreturn" horiz-adv-x="314" 
 />
    <glyph glyph-name="space" unicode=" " horiz-adv-x="220" 
 />
    <glyph glyph-name="exclam" unicode="!" horiz-adv-x="333" 
d="M176 176h-19l-43 395q-3 26 -3 39q0 30 16.5 48.5t39.5 18.5t39 -18.5t16 -54.5q0 -12 -2 -33zM166 94q22 0 38 -15.5t16 -37.5q0 -23 -16 -38.5t-38 -15.5t-38 15.5t-16 38.5q0 22 16 37.5t38 15.5z" />
    <glyph glyph-name="quotedbl" unicode="&#x22;" horiz-adv-x="408" 
d="M281 392l-26 143l-11 59q-1 12 -1 24q0 31 14 45t36 14q21 0 35 -14t14 -38q0 -41 -9 -90l-28 -143h-24zM103 392l-27 145q-11 59 -11 81q0 31 13 45t35 14q21 0 35.5 -14t14.5 -38q0 -19 -13 -89l-26 -144h-21z" />
    <glyph glyph-name="numbersign" unicode="#" 
d="M56 -13l46 222h-84v40h91l34 167h-125v39h134l45 222h40l-44 -222h164l48 222h40l-46 -222h83v-39h-90l-35 -167h125v-40h-133l-45 -222h-40l45 222h-166l-46 -222h-41zM150 249h166l35 167h-166z" />
    <glyph glyph-name="dollar" unicode="$" 
d="M53 163h21q6 -67 42.5 -102.5t109.5 -42.5v285q-110 68 -147 121q-26 37 -26 90q0 60 45 105t128 54v45h31v-45q40 -2 67 -9q14 -4 94 -34v-146h-19q-6 78 -40 114t-102 42v-248q123 -86 158 -126.5t35 -101.5q0 -67 -51 -118.5t-142 -58.5v-63h-31v63q-46 2 -85.5 10.5
t-87.5 27.5v138zM226 413v227q-49 -6 -73 -31t-24 -63q0 -36 21.5 -67t75.5 -66zM257 18q36 7 56 18q27 17 43 45t16 59q0 32 -19.5 61t-95.5 81v-264z" />
    <glyph glyph-name="uni0025" unicode="%" horiz-adv-x="833" 
d="M680 677l-483 -704h-43l482 704h44zM178 677q66 0 102 -54.5t36 -125.5q0 -85 -41 -131t-98 -46q-39 0 -71 21t-51.5 63t-19.5 93q0 52 19.5 95t53.5 64t70 21zM176 650q-25 0 -44 -29t-19 -123q0 -68 11 -104q8 -27 25 -41q11 -9 26 -9q23 0 40 25q24 38 24 126
q0 93 -24 130q-15 25 -39 25zM657 329q35 0 69.5 -22t53 -64t18.5 -92q0 -87 -41.5 -132.5t-97.5 -45.5q-36 0 -69.5 22t-52.5 62.5t-19 93.5q0 51 19 93.5t52.5 63.5t67.5 21zM658 303q-24 0 -41 -26q-22 -35 -22 -130q0 -87 23 -122q16 -25 40 -25q22 0 40 27
q23 36 23 123q0 91 -23 128q-16 25 -40 25z" />
    <glyph glyph-name="ampersand" unicode="&#x26;" horiz-adv-x="778" 
d="M510 427h205v-19q-42 -3 -62.5 -18.5t-63.5 -93t-96 -144.5q43 -51 77 -71.5t69 -20.5q34 0 57.5 18.5t32.5 54.5l19 -14q-19 -68 -59 -101t-93 -33q-40 0 -81 22t-90 73q-61 -53 -109.5 -74t-103.5 -21q-81 0 -128 43t-47 103q0 59 42.5 117.5t159.5 121.5
q-23 51 -31.5 83.5t-8.5 62.5q0 83 62 127q48 34 109 34q58 0 94.5 -34t36.5 -85t-35.5 -90.5t-125.5 -85.5q62 -110 130 -202q86 102 86 173q0 22 -15 40q-11 13 -31 15v19zM324 414q60 29 90 65.5t30 81.5q0 35 -21.5 58t-53.5 23q-43 0 -64.5 -29.5t-21.5 -58.5
q0 -23 8 -53t33 -87zM399 109q-64 88 -89 128.5t-55 100.5q-58 -34 -87.5 -74.5t-29.5 -87.5q0 -53 33.5 -92.5t90.5 -39.5q31 0 59.5 12.5t77.5 52.5z" />
    <glyph glyph-name="quotesingle" unicode="'" horiz-adv-x="180" 
d="M77 392l-26 145q-11 60 -11 81q0 31 12.5 45t34.5 14t36.5 -14t14.5 -38q0 -18 -13 -89l-26 -144h-22z" />
    <glyph glyph-name="parenleft" unicode="(" horiz-adv-x="333" 
d="M311 -196v-18q-74 37 -124 87q-70 71 -108 167t-38 200q0 151 74.5 276t195.5 179v-21q-61 -33 -99.5 -90.5t-57.5 -146t-19 -184.5q0 -105 16 -190q13 -68 31 -108.5t48.5 -78t80.5 -72.5z" />
    <glyph glyph-name="parenright" unicode=")" horiz-adv-x="333" 
d="M22 674v21q75 -37 124 -87q70 -71 108 -167t38 -200q0 -151 -74.5 -276t-195.5 -179v18q61 34 99.5 91.5t57.5 146t19 184.5q0 104 -16 190q-13 68 -31 108.5t-48.5 78t-80.5 71.5z" />
    <glyph glyph-name="asterisk" unicode="*" 
d="M241 510q-2 34 -13 67q-17 48 -17 66q0 25 12 38.5t29 13.5q16 0 27 -13.5t11 -37.5q0 -22 -13 -61.5t-16 -72.5q27 17 49 42q33 38 49 47.5t33 9.5q16 0 27 -11t11 -26q0 -19 -16.5 -33t-80.5 -28q-38 -8 -62 -19q25 -13 62 -20q59 -11 77 -27t18 -35q0 -15 -11 -25.5
t-25 -10.5q-15 0 -33 10t-48 46q-20 24 -50 45q1 -28 11 -61q18 -57 18 -78q0 -20 -11.5 -33.5t-25.5 -13.5q-18 0 -32 14q-11 11 -11 33q0 24 11.5 57t14.5 45t5 37q-29 -19 -50 -43q-36 -40 -54 -50q-12 -8 -26 -8q-17 0 -28.5 11t-11.5 25q0 12 10 25.5t30 22.5
q13 6 60 15q30 7 59 19q-26 13 -63 20q-60 13 -74 23q-22 17 -22 39q0 14 11 25t25 11q17 0 35 -10.5t44.5 -41.5t54.5 -48z" />
    <glyph glyph-name="plus" unicode="+" horiz-adv-x="564" 
d="M261 69v244h-243v40h243v242h39v-242h244v-40h-244v-244h-39z" />
    <glyph glyph-name="comma" unicode="," horiz-adv-x="250" 
d="M54 -166v21q50 17 77.5 52t27.5 74q0 9 -4 15q-4 5 -7 5q-5 0 -23 -10q-9 -4 -19 -4q-24 0 -38 14t-14 39q0 24 18 41t45 17q32 0 57 -28t25 -75q0 -50 -35 -93t-110 -68z" />
    <glyph glyph-name="hyphen" unicode="-" horiz-adv-x="333" 
d="M41 261h252v-73h-252v73z" />
    <glyph glyph-name="period" unicode="." horiz-adv-x="250" 
d="M125 95q23 0 38.5 -16t15.5 -38q0 -23 -16 -38.5t-38 -15.5t-38 15.5t-16 38.5t16 38.5t38 15.5z" />
    <glyph glyph-name="slash" unicode="/" horiz-adv-x="278" 
d="M280 695l-239 -708h-40l240 708h39z" />
    <glyph glyph-name="zero" unicode="0" 
d="M36 327q0 114 34 195.5t91 121.5q44 32 91 32q76 0 137 -78q75 -96 75 -260q0 -116 -33 -196.5t-84.5 -116.5t-99.5 -36q-95 0 -158 111q-53 95 -53 227zM132 315q0 -137 34 -223q27 -73 83 -73q26 0 54.5 24t42.5 79q23 84 23 237q0 113 -24 189q-17 56 -45 80
q-20 16 -49 16q-33 0 -59 -30q-35 -41 -47.5 -127.5t-12.5 -171.5z" />
    <glyph glyph-name="one" unicode="1" 
d="M117 597l161 79h16v-559q0 -56 5 -69.5t19.5 -21t59.5 -8.5v-18h-249v18q47 1 60.5 8t19 19t5.5 72v357q0 73 -5 93q-3 16 -12.5 23t-21.5 7q-18 0 -50 -15z" />
    <glyph glyph-name="two" unicode="2" 
d="M458 128l-46 -128h-391v18q173 158 243 257.5t70 181.5q0 63 -38.5 103.5t-91.5 40.5q-49 0 -88 -28.5t-57 -83.5h-18q12 90 62.5 138.5t125.5 48.5q81 0 135 -51.5t54 -122.5q0 -50 -23 -100q-37 -79 -118 -168q-121 -133 -152 -160h173q53 0 74.5 4t38.5 16t29 34h18z
" />
    <glyph glyph-name="three" unicode="3" 
d="M51 536q28 67 71.5 103.5t107.5 36.5q80 0 122 -52q32 -38 32 -82q0 -73 -91 -150q61 -24 92.5 -68t31.5 -105q0 -85 -55 -148q-71 -82 -206 -82q-67 0 -91 16.5t-24 35.5q0 14 11 24.5t28 10.5q12 0 24 -3q9 -3 38 -18.5t41 -18.5q18 -5 38 -5q50 0 87 38.5t37 91.5
q0 38 -17 75q-13 27 -28 42q-21 19 -57.5 35t-75.5 16h-15v15q38 4 77 27t56.5 55.5t17.5 70.5q0 51 -31.5 82t-78.5 31q-75 0 -126 -81z" />
    <glyph glyph-name="four" unicode="4" 
d="M465 244v-69h-89v-175h-80v175h-280v63l307 438h53v-432h89zM296 244v329l-233 -329h233z" />
    <glyph glyph-name="five" unicode="5" 
d="M434 662l-38 -83h-199l-44 -89q130 -19 205 -96q65 -66 65 -156q0 -52 -21 -96.5t-53.5 -76t-71.5 -50.5q-56 -26 -115 -26q-60 0 -87 20t-27 44q0 14 11 24.5t28 10.5q13 0 22.5 -4t32.5 -20q37 -25 74 -25q57 0 100.5 43t43.5 105q0 60 -38.5 112t-106.5 81
q-53 22 -145 25l127 257h237z" />
    <glyph glyph-name="six" unicode="6" 
d="M448 676v-18q-64 -6 -105 -25.5t-80.5 -59t-66 -88t-43.5 -115.5q70 48 141 48q68 0 117.5 -54.5t49.5 -140.5q0 -83 -50 -151q-60 -83 -160 -83q-68 0 -115 44q-93 88 -93 227q0 89 35.5 169t102 142t127 83.5t112.5 21.5h28zM145 334q-9 -66 -9 -106q0 -47 17 -102
t52 -87q24 -23 60 -23q43 0 76.5 40t33.5 114q0 84 -33.5 145t-94.5 61q-18 0 -39.5 -8t-62.5 -34z" />
    <glyph glyph-name="seven" unicode="7" 
d="M101 662h355v-18l-221 -657h-55l198 596h-182q-55 0 -79 -13q-41 -23 -66 -70l-14 6z" />
    <glyph glyph-name="eight" unicode="8" 
d="M192 334q-79 64 -101.5 103t-22.5 81q0 65 49.5 111.5t132.5 46.5q80 0 129 -43.5t49 -99.5q0 -37 -26.5 -75.5t-109.5 -90.5q85 -66 113 -105q37 -49 37 -105q0 -69 -53 -118.5t-139 -49.5q-95 0 -147 59q-42 47 -42 103q0 44 29.5 87t101.5 96zM269 386
q58 53 73.5 83.5t15.5 68.5q0 52 -28.5 81t-78.5 29t-81 -29t-31 -67q0 -26 13 -51.5t36 -48.5zM215 315q-41 -34 -60.5 -74.5t-19.5 -86.5q0 -63 34.5 -101t87.5 -38t85 29.5t32 72.5q0 35 -19 63q-35 52 -140 135z" />
    <glyph glyph-name="nine" unicode="9" 
d="M53 -13v18q63 1 118 29.5t106 99.5t71 157q-77 -50 -139 -50q-70 0 -119.5 54t-49.5 144q0 87 49 155q60 82 157 82q82 0 140 -67q71 -84 71 -206q0 -111 -54 -206.5t-151 -158.5q-79 -51 -171 -51h-28zM355 327q9 63 9 101q0 48 -16 103t-45.5 84t-67.5 29
q-43 0 -76 -39t-33 -116q0 -103 44 -161q32 -42 78 -42q23 0 53.5 10.5t53.5 30.5z" />
    <glyph glyph-name="colon" unicode=":" horiz-adv-x="278" 
d="M141 427q23 0 38.5 -16t15.5 -38q0 -23 -15.5 -38.5t-38.5 -15.5q-22 0 -38 15.5t-16 38.5q0 22 16 38t38 16zM140 95q23 0 39 -16t16 -38q0 -23 -16 -38.5t-39 -15.5q-22 0 -38 15.5t-16 38.5q0 22 16 38t38 16z" />
    <glyph glyph-name="semicolon" unicode=";" horiz-adv-x="278" 
d="M138 425q22 0 38 -15.5t16 -38.5q0 -22 -16 -38t-38 -16q-23 0 -39 16t-16 38q0 23 16 38.5t39 15.5zM69 -166v21q51 17 78.5 52t27.5 74q0 9 -5 15q-3 5 -6 5q-6 0 -24 -10q-9 -4 -18 -4q-24 0 -38.5 14t-14.5 39q0 24 18.5 41t44.5 17q33 0 58 -28t25 -75
q0 -50 -35 -93t-111 -68z" />
    <glyph glyph-name="less" unicode="&#x3c;" horiz-adv-x="564" 
d="M18 345l525 228v-43l-452 -196l452 -199v-43l-525 229v24z" />
    <glyph glyph-name="equal" unicode="=" horiz-adv-x="564" 
d="M18 431h527v-40h-527v40zM18 272h527v-40h-527v40z" />
    <glyph glyph-name="greater" unicode="&#x3e;" horiz-adv-x="564" 
d="M543 319l-525 -227v42l453 196l-453 198v45l525 -230v-24z" />
    <glyph glyph-name="question" unicode="?" horiz-adv-x="444" 
d="M222 156h-20q3 62 15 102.5t50 111.5q29 56 37.5 85.5t8.5 59.5q0 62 -32.5 98.5t-80.5 36.5q-43 0 -67.5 -20t-24.5 -43q0 -18 15 -44.5t15 -40.5q0 -17 -11.5 -29t-27.5 -12q-20 0 -37 20t-17 56q0 56 47.5 98t128.5 42q100 0 148 -58q35 -43 35 -95q0 -36 -16 -73.5
t-60 -88.5q-71 -80 -87 -113.5t-19 -92.5zM215 96q23 0 39 -16t16 -39q0 -22 -16.5 -38t-38.5 -16q-23 0 -38.5 16t-15.5 38q0 23 15.5 39t38.5 16z" />
    <glyph glyph-name="at" unicode="@" horiz-adv-x="921" 
d="M687 468l-57 -195q-31 -109 -38 -138.5t-7 -46.5q0 -16 10.5 -26.5t26.5 -10.5q35 0 85 35.5t86 115.5t36 167q0 83 -40.5 154t-114 109t-162.5 38q-113 0 -209.5 -60t-153 -172.5t-56.5 -233.5q0 -112 49.5 -204t139.5 -139t194 -47q128 0 232 69t160 201h28
q-43 -134 -159 -217t-264 -83q-116 0 -215.5 55t-155 156t-55.5 222q0 129 60.5 240.5t170 174.5t231.5 63q101 0 182.5 -42t124 -122.5t42.5 -170.5q0 -89 -40 -177t-101.5 -128t-128.5 -40q-37 0 -55.5 18t-18.5 49q0 28 8 72q-72 -87 -115.5 -113t-76.5 -26
q-35 0 -61.5 31t-26.5 83q0 70 46 158t122 143q56 41 101 41q32 0 54 -17t30 -50l16 53zM516 448q-37 0 -74 -39q-55 -56 -94 -152q-29 -71 -29 -114q0 -30 17.5 -49.5t38.5 -19.5q28 0 59.5 21.5t65.5 66t50 89.5q27 78 27 127q0 32 -17.5 51t-43.5 19z" />
    <glyph glyph-name="A" unicode="A" horiz-adv-x="722" 
d="M458 222h-257l-45 -105q-16 -38 -16 -57q0 -15 14 -26.5t62 -15.5v-18h-208v18q41 8 54 19q24 24 55 96l233 544h17l230 -550q28 -67 50.5 -86.5t63.5 -22.5v-18h-261v18q39 2 53 13.5t14 27.5q0 21 -19 68zM444 258l-112 268l-116 -268h228z" />
    <glyph glyph-name="B" unicode="B" horiz-adv-x="667" 
d="M462 338q69 -15 103 -47q47 -45 47 -110q0 -49 -31 -94t-85.5 -66t-166.5 -21h-312v18h25q41 0 59 27q11 17 11 72v428q0 62 -14 78q-19 21 -56 21h-25v18h286q80 0 128 -11q73 -18 112 -62.5t39 -102.5q0 -50 -30.5 -89.5t-89.5 -58.5zM206 364q18 -3 41.5 -4.5
t50.5 -1.5q72 0 107.5 15t54.5 47t19 69q0 59 -47 100t-138 41q-49 0 -88 -11v-255zM206 48q57 -13 112 -13q88 0 134.5 39.5t46.5 98.5q0 39 -21 74.5t-68.5 56t-117.5 20.5q-30 0 -51.5 -1t-34.5 -3v-272z" />
    <glyph glyph-name="C" unicode="C" horiz-adv-x="667" 
d="M602 677l15 -225h-15q-30 101 -86.5 145.5t-134.5 44.5q-66 0 -119.5 -33.5t-84 -106.5t-30.5 -182q0 -90 29 -156t87 -101t132 -35q64 0 113.5 27.5t108.5 109.5l15 -9q-49 -89 -115.5 -130t-158.5 -41q-164 0 -254 122q-68 91 -68 214q0 99 44.5 182t122.5 128.5
t170 45.5q72 0 142 -35q20 -10 29 -10q13 0 23 9q13 13 18 36h17z" />
    <glyph glyph-name="D" unicode="D" horiz-adv-x="722" 
d="M17 0v18h25q42 0 60 27q10 16 10 72v428q0 62 -13 78q-19 21 -57 21h-25v18h270q148 0 225.5 -33.5t124.5 -112t47 -181.5q0 -138 -84 -231q-94 -104 -287 -104h-296zM206 48q62 -14 104 -14q113 0 188 80t75 216q0 137 -75 216t-192 79q-44 0 -100 -14v-563z" />
    <glyph glyph-name="E" unicode="E" horiz-adv-x="611" 
d="M209 626v-262h145q57 0 76 18q26 22 28 79h19v-231h-19q-6 49 -13 62q-9 17 -29 27t-62 10h-145v-218q0 -44 4 -53.5t13.5 -15.5t37.5 -6h112q56 0 81.5 8t48.5 31q31 30 62 91h20l-57 -166h-510v18h23q23 0 44 12q16 7 21.5 23t5.5 64v430q0 63 -12 78q-18 19 -59 19
h-23v18h510l7 -145h-19q-10 53 -22.5 72.5t-37.5 29.5q-19 7 -68 7h-182z" />
    <glyph glyph-name="F" unicode="F" horiz-adv-x="556" 
d="M205 626v-260h120q42 0 61 18.5t26 72.5h18v-224h-18q-1 38 -10.5 56t-26.5 27t-50 9h-120v-208q0 -50 6 -66q5 -12 20 -21q22 -12 45 -12h24v-18h-284v18h24q41 0 59 24q12 16 12 75v428q0 50 -7 67q-4 12 -20 21q-21 11 -44 11h-24v18h493l6 -145h-17q-13 46 -29.5 68
t-41.5 31.5t-76 9.5h-146z" />
    <glyph glyph-name="G" unicode="G" horiz-adv-x="722" 
d="M614 677l17 -208h-17q-26 78 -67 117q-59 57 -152 57q-126 0 -192 -100q-56 -84 -56 -201q0 -95 37 -173t96 -114.5t122 -36.5q36 0 70.5 9.5t66.5 27.5v191q0 50 -8 65.5t-23.5 23.5t-55.5 8v19h256v-19h-12q-38 0 -52 -25q-10 -18 -10 -72v-202q-56 -31 -111 -45
t-122 -14q-192 0 -291 123q-75 92 -75 213q0 87 42 168q50 95 137 146q73 42 172 42q36 0 65.5 -5.5t83.5 -25.5q27 -11 37 -11q9 0 15.5 9t8.5 33h18z" />
    <glyph glyph-name="H" unicode="H" horiz-adv-x="722" 
d="M206 355h307v190q0 50 -6 67q-5 12 -21 21q-21 11 -44 11h-24v18h284v-18h-24q-23 0 -44 -11q-16 -8 -21.5 -23.5t-5.5 -64.5v-428q0 -50 6 -66q5 -12 20 -21q22 -12 45 -12h24v-18h-284v18h24q40 0 59 24q12 16 12 75v202h-307v-202q0 -50 6 -66q5 -12 20 -21
q21 -12 45 -12h24v-18h-284v18h24q41 0 59 24q12 16 12 75v428q0 50 -7 67q-4 12 -20 21q-21 11 -44 11h-24v18h284v-18h-24q-24 0 -45 -11q-15 -8 -20.5 -23.5t-5.5 -64.5v-190z" />
    <glyph glyph-name="I" unicode="I" horiz-adv-x="333" 
d="M309 18v-18h-284v18h23q41 0 60 24q12 16 12 75v428q0 50 -7 67q-5 12 -20 21q-21 11 -45 11h-23v18h284v-18h-24q-41 0 -59 -24q-13 -15 -13 -75v-428q0 -50 7 -66q5 -12 20 -21q21 -12 45 -12h24z" />
    <glyph glyph-name="J" unicode="J" horiz-adv-x="389" 
d="M100 644v18h283v-18h-24q-40 0 -59 -24q-11 -15 -11 -75v-324q0 -74 -16.5 -120.5t-56.5 -81t-97 -34.5q-46 0 -72 23t-26 52q0 24 12 36q16 15 37 15q16 0 28.5 -10t31.5 -55q11 -26 29 -26q13 0 24.5 16t11.5 57v452q0 50 -7 67q-4 12 -20 21q-21 11 -44 11h-24z" />
    <glyph glyph-name="K" unicode="K" horiz-adv-x="722" 
d="M299 367l244 -242q60 -60 102.5 -82t84.5 -25v-18h-314v18q28 0 40.5 9.5t12.5 21.5t-5 21t-30 35l-229 226v-214q0 -50 6 -66q5 -12 21 -21q21 -12 44 -12h23v-18h-282v18h23q41 0 60 24q11 16 11 75v428q0 50 -6 67q-5 12 -20 21q-22 11 -45 11h-23v18h282v-18h-23
q-23 0 -44 -11q-15 -8 -21 -23.5t-6 -64.5v-202q10 9 67 62q145 132 175 177q13 19 13 34q0 11 -10 19.5t-34 8.5h-16v18h244v-18q-22 0 -39.5 -5.5t-43 -21t-62.5 -49.5q-11 -10 -99 -100z" />
    <glyph glyph-name="L" unicode="L" horiz-adv-x="611" 
d="M573 183l16 -3l-56 -180h-513v18h25q42 0 60 28q10 15 10 72v427q0 62 -13 78q-19 21 -57 21h-25v18h300v-18q-53 1 -74 -9.5t-29 -26t-8 -74.5v-416q0 -41 8 -56q6 -10 18 -15t76 -5h48q77 0 107.5 11.5t56 40t50.5 89.5z" />
    <glyph glyph-name="M" unicode="M" horiz-adv-x="889" 
d="M409 0l-256 557v-442q0 -61 14 -76q18 -21 57 -21h23v-18h-230v18h23q42 0 60 26q10 15 10 71v433q0 44 -9 63q-7 14 -25.5 23.5t-58.5 9.5v18h187l240 -518l237 518h187v-18h-23q-42 0 -60 -25q-11 -16 -11 -71v-433q0 -61 14 -76q18 -21 57 -21h23v-18h-281v18h23
q43 0 60 26q11 15 11 71v442l-256 -557h-16z" />
    <glyph glyph-name="N" unicode="N" horiz-adv-x="722" 
d="M-13 662h180l404 -496v382q0 61 -13 76q-18 20 -58 20h-22v18h230v-18h-23q-42 0 -60 -25q-11 -16 -11 -71v-559h-17l-437 534v-408q0 -61 13 -76q19 -21 57 -21h24v-18h-231v18h23q43 0 60 26q11 15 11 71v460q-29 34 -43.5 45t-43.5 20q-14 4 -43 4v18z" />
    <glyph glyph-name="O" unicode="O" horiz-adv-x="722" 
d="M366 677q129 0 223.5 -97.5t94.5 -244.5q0 -151 -95.5 -250.5t-230.5 -99.5q-137 0 -230 97t-93 252q0 157 108 257q93 86 223 86zM356 642q-88 0 -142 -66q-67 -82 -67 -240q0 -162 69 -250q54 -66 141 -66q93 0 154 72.5t61 229.5q0 170 -67 253q-54 67 -149 67z" />
    <glyph glyph-name="P" unicode="P" horiz-adv-x="556" 
d="M205 310v-193q0 -62 14 -77q18 -22 56 -22h25v-18h-283v18h25q41 0 60 28q9 15 9 71v428q0 63 -13 78q-19 21 -56 21h-25v18h242q89 0 140.5 -18t86.5 -61.5t35 -103.5q0 -81 -53.5 -131.5t-151.5 -50.5q-24 0 -51.5 3t-59.5 10zM205 338q26 -5 46 -7.5t34 -2.5
q51 0 88 39.5t37 101.5q0 43 -17.5 80t-50 55.5t-73.5 18.5q-25 0 -64 -9v-276z" />
    <glyph glyph-name="Q" unicode="Q" horiz-adv-x="722" 
d="M440 -7q50 -86 108 -126.5t132 -46.5v-16q-68 3 -144.5 27.5t-145 68.5t-118.5 93q-70 28 -111 60q-60 47 -93 116.5t-33 163.5q0 148 96.5 246t232.5 98q130 0 225 -98t95 -248q0 -122 -67.5 -213.5t-176.5 -124.5zM358 640q-88 0 -143 -64q-68 -79 -68 -243
q0 -161 69 -248q54 -67 142 -67q92 0 148 67q66 79 66 234q0 118 -36 199q-28 63 -74 92.5t-104 29.5z" />
    <glyph glyph-name="R" unicode="R" horiz-adv-x="667" 
d="M676 0h-177l-224 310q-25 -1 -41 -1h-14q-7 0 -14 1v-193q0 -62 13 -77q19 -22 56 -22h26v-18h-284v18h25q42 0 60 28q10 15 10 71v428q0 63 -13 78q-19 21 -57 21h-25v18h241q106 0 156 -15t85 -56.5t35 -98.5q0 -61 -40 -106t-123 -63l136 -190q47 -66 81 -87.5
t88 -27.5v-18zM206 341q9 0 16 -0.5t11 -0.5q95 0 143 41t48 105q0 62 -39 100.5t-103 38.5q-28 0 -76 -9v-275z" />
    <glyph glyph-name="S" unicode="S" horiz-adv-x="556" 
d="M458 677v-229h-18q-8 66 -31 105.5t-65 62t-87 22.5q-50 0 -83.5 -31t-33.5 -70q0 -30 21 -55q30 -37 144 -98q93 -50 127 -76.5t52 -62.5t18 -76q0 -75 -58 -129.5t-150 -54.5q-29 0 -54 4q-15 3 -63 18.5t-60 15.5q-13 0 -20 -7.5t-10 -30.5h-18v227h18
q13 -71 34.5 -106.5t65.5 -59t97 -23.5q61 0 96.5 32.5t35.5 76.5q0 24 -13.5 49t-42.5 46q-19 15 -104 62.5t-120.5 76t-54.5 62.5t-19 75q0 71 55 122.5t139 51.5q53 0 112 -25q28 -13 39 -13q12 0 20.5 8t12.5 30h18z" />
    <glyph glyph-name="T" unicode="T" horiz-adv-x="611" 
d="M579 662l7 -155h-19q-5 41 -14 59q-15 28 -40.5 41.5t-66.5 13.5h-93v-506q0 -61 13 -76q19 -21 57 -21h23v-18h-280v18h23q42 0 60 26q10 15 10 71v506h-79q-47 0 -66 -7q-26 -9 -44 -35.5t-21 -71.5h-19l8 155h541z" />
    <glyph glyph-name="U" unicode="U" horiz-adv-x="722" 
d="M477 644v18h234v-18h-24q-40 0 -61 -32q-10 -16 -10 -71v-268q0 -100 -19.5 -155t-77.5 -94t-158 -39q-108 0 -164 37.5t-80 100.5q-15 44 -15 163v259q0 61 -17 80t-55 19h-25v18h287v-18h-26q-41 0 -58 -26q-13 -17 -13 -73v-288q0 -39 7 -89t26 -77.5t53.5 -45.5
t85.5 -18q65 0 116.5 28t70 72.5t18.5 149.5v268q0 62 -13 78q-19 21 -57 21h-25z" />
    <glyph glyph-name="V" unicode="V" horiz-adv-x="722" 
d="M710 662v-18q-35 -6 -53 -22q-26 -24 -46 -73l-231 -564h-18l-248 571q-19 44 -27 54q-12 15 -30 23.5t-48 10.5v18h270v-18q-46 -4 -59.5 -15.5t-13.5 -28.5q0 -25 23 -76l168 -389l156 384q23 56 23 78q0 15 -14 27.5t-48 18.5q-2 0 -8 1v18h204z" />
    <glyph glyph-name="W" unicode="W" horiz-adv-x="944" 
d="M936 662v-18q-26 0 -42 -9t-31 -35q-9 -17 -30 -81l-185 -534h-20l-150 423l-150 -423h-18l-197 550q-22 61 -28 73q-9 18 -26 27t-46 9v18h245v-18h-11q-26 0 -40 -11.5t-14 -28.5t22 -78l130 -372l110 316l-19 56l-16 44q-10 24 -23 43q-6 9 -16 16q-12 8 -24 12
q-9 3 -29 3v18h257v-18h-17q-27 0 -40 -11.5t-13 -31.5q0 -25 22 -87l127 -360l126 365q22 60 22 84q0 11 -7.5 21t-17.5 13q-19 7 -49 7v18h198z" />
    <glyph glyph-name="X" unicode="X" horiz-adv-x="722" 
d="M408 367l142 -212q59 -88 88 -111t72 -26v-18h-284v18q29 1 42 6q11 5 17.5 14t6.5 18q0 11 -5 22q-3 9 -27 43l-112 170l-139 -177q-22 -29 -26 -38.5t-4 -19.5q0 -16 13 -26t50 -12v-18h-235v18q25 3 43 11q31 12 58 33.5t62 66.5l157 197l-131 191q-53 77 -90 101.5
t-85 25.5v18h306v-18q-39 -1 -53.5 -12.5t-14.5 -24.5q0 -18 23 -53l102 -152l117 149q21 26 25.5 36t4.5 20t-6 18q-7 10 -18 14.5t-47 4.5v18h235v-18q-28 -1 -45 -9q-26 -11 -48 -30t-62 -70z" />
    <glyph glyph-name="Y" unicode="Y" horiz-adv-x="722" 
d="M477 662h231v-18h-13q-13 0 -37.5 -11t-44.5 -32t-49 -69l-160 -251v-166q0 -61 14 -76q19 -21 59 -21h21v-18h-281v18h23q42 0 60 26q11 15 11 71v157l-182 277q-32 49 -43.5 61t-47.5 29q-10 5 -29 5v18h283v-18h-14q-23 0 -42.5 -10.5t-19.5 -32.5q0 -17 30 -63
l138 -214l130 205q29 45 29 68q0 14 -7 24.5t-20 16.5t-39 6v18z" />
    <glyph glyph-name="Z" unicode="Z" horiz-adv-x="611" 
d="M575 662l-435 -622h272q62 0 95.5 27.5t59.5 110.5l16 -2l-31 -176h-539v18l424 605h-211q-53 0 -77 -11.5t-36 -33.5t-23 -81h-18l13 165h490z" />
    <glyph glyph-name="bracketleft" unicode="[" horiz-adv-x="333" 
d="M297 -198h-215v875h215v-38h-142v-799h142v-38z" />
    <glyph glyph-name="backslash" unicode="\" horiz-adv-x="278" 
d="M41 695l239 -708h-39l-240 708h40z" />
    <glyph glyph-name="bracketright" unicode="]" horiz-adv-x="333" 
d="M37 677h214v-875h-214v38h141v799h-141v38z" />
    <glyph glyph-name="asciicircum" unicode="^" horiz-adv-x="469" 
d="M243 676l208 -350h-45l-171 286l-171 -286h-46l211 350h14z" />
    <glyph glyph-name="underscore" unicode="_" 
d="M509 -216h-517v41h517v-41z" />
    <glyph glyph-name="grave" unicode="`" horiz-adv-x="333" 
d="M58 679h109l51 -169h-17z" />
    <glyph glyph-name="a" unicode="a" horiz-adv-x="444" 
d="M285 65q-69 -54 -87 -62q-26 -12 -56 -12q-46 0 -76 31.5t-30 83.5q0 33 14 57q20 33 69.5 62.5t165.5 71.5v17q0 67 -21.5 92t-61.5 25q-31 0 -49 -17q-19 -16 -19 -38l1 -28q0 -23 -11.5 -35t-29.5 -12t-29.5 12.5t-11.5 34.5q0 42 43 77.5t120 35.5q60 0 98 -20
q29 -15 42 -48q9 -21 9 -86v-151q0 -64 2.5 -78.5t8 -19.5t13.5 -5q7 0 13 3q11 7 40 36v-27q-55 -74 -105 -74q-24 0 -38 17t-14 57zM285 96v171q-74 -29 -96 -42q-38 -21 -54.5 -44.5t-16.5 -51.5q0 -35 21 -58t48 -23q37 0 98 48z" />
    <glyph glyph-name="b" unicode="b" 
d="M154 370q65 91 140 91q69 0 120 -59t51 -161q0 -119 -79 -192q-68 -62 -151 -62q-39 0 -79.5 14t-82.5 42v464q0 76 -3.5 93.5t-11.5 24t-19 6.5q-14 0 -35 -8l-6 17l134 55h22v-325zM154 339v-267q25 -25 51.5 -37.5t54.5 -12.5q44 0 82.5 49t38.5 142q0 86 -38.5 132
t-87.5 46q-26 0 -51 -13q-20 -10 -50 -39z" />
    <glyph glyph-name="c" unicode="c" horiz-adv-x="444" 
d="M411 170q-18 -88 -70.5 -135.5t-116.5 -47.5q-77 0 -133.5 63.5t-56.5 172.5q0 106 63 172t151 66q65 0 107.5 -35t42.5 -73q0 -18 -11.5 -29.5t-33.5 -11.5q-29 0 -43 18q-9 11 -11.5 39.5t-19.5 43.5t-48 15q-48 0 -78 -36q-40 -48 -40 -127q0 -80 39.5 -141t106.5 -61
q48 0 86 32q27 23 52 82z" />
    <glyph glyph-name="d" unicode="d" 
d="M347 51q-33 -35 -64 -49.5t-67 -14.5q-73 0 -128 61t-55 157q0 97 60.5 176.5t156.5 79.5q59 0 97 -37v82q0 77 -3.5 94.5t-11.5 24t-20 6.5t-33 -8l-7 17l134 55h22v-518q0 -78 3.5 -95.5t11.5 -24t19 -6.5q13 0 35 8l5 -17l-132 -55h-23v64zM347 85v230
q-3 33 -17.5 60.5t-38.5 41.5t-47 14q-43 0 -77 -39q-44 -50 -44 -148q0 -99 42.5 -151.5t95.5 -52.5q45 0 86 45z" />
    <glyph glyph-name="e" unicode="e" horiz-adv-x="444" 
d="M106 279q0 -100 49 -156q49 -57 115 -57q43 0 75.5 24t54.5 83l16 -10q-11 -67 -60 -121.5t-124 -54.5q-80 0 -137.5 62.5t-57.5 168.5q0 115 59 179t148 64q75 0 123.5 -49.5t48.5 -132.5h-310zM106 307h207q-2 43 -10 61q-12 27 -36 43t-51 16q-40 0 -72 -31.5
t-38 -88.5z" />
    <glyph glyph-name="f" unicode="f" horiz-adv-x="333" 
d="M206 412v-294q0 -62 14 -79q18 -21 48 -21h41v-18h-267v18h20q19 0 35 9.5t22 26.5t6 64v294h-86v36h86v29q0 67 21.5 113t66 75t99.5 29q51 0 94 -34q29 -22 29 -49q0 -15 -13 -27.5t-27 -12.5q-12 0 -24.5 8t-30.5 34.5t-33 35.5t-34 9q-22 0 -37.5 -11.5t-22.5 -37
t-7 -129.5v-32h115v-36h-115z" />
    <glyph glyph-name="g" unicode="g" 
d="M151 163q-41 20 -63 56t-22 80q0 66 50 114t128 48q64 0 111 -32h95q21 0 24.5 -1t4.5 -4q3 -4 3 -16t-3 -17q-1 -3 -4.5 -4.5t-24.5 -1.5h-58q27 -35 27 -89q0 -63 -48 -107.5t-128 -44.5q-34 0 -68 10q-22 -19 -29.5 -32.5t-7.5 -23.5q0 -8 8 -16t32 -11q13 -2 68 -4
q101 -2 130 -7q46 -6 73 -33.5t27 -67.5q0 -55 -52 -103q-76 -72 -198 -72q-95 0 -160 43q-36 24 -36 51q0 11 5 23q8 18 34 50q4 5 50 53q-25 15 -35.5 27t-10.5 27q0 17 14 40t64 65zM236 437q-36 0 -60.5 -28.5t-24.5 -88.5q0 -77 33 -120q25 -32 65 -32q37 0 60.5 28
t23.5 87q0 78 -33 122q-25 32 -64 32zM146 0q-23 -25 -34.5 -46.5t-11.5 -39.5q0 -23 28 -41q49 -30 141 -30q88 0 129.5 31t41.5 66q0 26 -24 36q-26 11 -101 13q-110 3 -169 11z" />
    <glyph glyph-name="h" unicode="h" 
d="M163 695v-328q54 60 85.5 77t63.5 17q38 0 65.5 -21t40.5 -66q9 -31 9 -114v-159q0 -42 7 -58q5 -12 16.5 -18.5t43.5 -6.5v-18h-220v18h10q31 0 43.5 9.5t17.5 27.5q1 8 1 46v159q0 73 -7.5 96t-24 34.5t-40.5 11.5t-49.5 -13t-61.5 -51v-237q0 -46 5 -57t19 -18.5
t48 -7.5v-18h-222v18q30 0 47 9q10 5 16 18.5t6 55.5v405q0 77 -4 94.5t-11.5 24t-20.5 6.5q-10 0 -33 -8l-7 17l134 55h23z" />
    <glyph glyph-name="i" unicode="i" horiz-adv-x="278" 
d="M145 695q21 0 35 -14.5t14 -35.5q0 -20 -14 -35t-35 -15q-20 0 -35 15t-15 35q0 21 14.5 35.5t35.5 14.5zM186 461v-360q0 -42 6 -56t18 -20.5t43 -6.5v-18h-217v18q33 0 44 6.5t17.5 21t6.5 55.5v173q0 72 -4 94q-3 16 -10.5 22t-20.5 6t-33 -8l-7 18l135 55h22z" />
    <glyph glyph-name="j" unicode="j" horiz-adv-x="278" 
d="M145 695q21 0 35.5 -14.5t14.5 -35.5t-14.5 -35.5t-35.5 -14.5t-35.5 14.5t-14.5 35.5t14.5 35.5t35.5 14.5zM187 461v-451q0 -114 -49 -170t-127 -56q-45 0 -66.5 16.5t-21.5 33.5t12 29t28 12q13 0 26 -6q9 -4 32.5 -25t39.5 -21q12 0 23 9t16.5 30.5t5.5 91.5v319
q0 73 -4 94q-4 17 -11.5 23t-19.5 6q-14 0 -33 -8l-7 18l135 55h21z" />
    <glyph glyph-name="k" unicode="k" 
d="M164 695v-446l113 104q36 33 42 42q4 6 4 12q0 10 -8 17t-26 8v16h194v-16q-40 -1 -66.5 -12.5t-58.5 -39.5l-115 -106l115 -145q48 -60 64 -77q24 -22 41 -29q13 -5 43 -5v-18h-217v18q18 0 24.5 5.5t6.5 14.5q0 11 -19 36l-137 175v-148q0 -44 6 -57.5t17 -19.5t49 -6
v-18h-228v18q34 0 52 8q10 5 15 17q8 16 8 55v408q0 77 -3.5 94.5t-11.5 24t-21 6.5q-10 0 -30 -8l-9 17l133 55h23z" />
    <glyph glyph-name="l" unicode="l" horiz-adv-x="278" 
d="M185 695v-594q0 -42 6 -55.5t19 -20.5t47 -7v-18h-219v18q31 0 42 6.5t17.5 21t6.5 55.5v407q0 75 -3.5 92.5t-11 24t-19.5 6.5t-32 -8l-8 17l133 55h22z" />
    <glyph glyph-name="m" unicode="m" horiz-adv-x="778" 
d="M164 365q49 49 58 57q22 18 47 28.5t50 10.5q42 0 72.5 -24.5t40.5 -71.5q50 59 85 77.5t71 18.5t63.5 -18.5t43.5 -59.5q11 -29 11 -89v-193q0 -42 6 -57q5 -11 18.5 -18.5t42.5 -7.5v-18h-220v18h9q29 0 45 11q11 8 16 25q2 8 2 47v193q0 54 -13 77q-19 31 -61 31
q-26 0 -52 -13t-63 -48l-1 -5l1 -21v-214q0 -46 5 -57t19 -18.5t48 -7.5v-18h-226v18q37 0 51 8.5t20 26.5q2 8 2 48v193q0 54 -16 78q-22 32 -60 32q-27 0 -52 -15q-41 -21 -63 -48v-240q0 -44 6 -57t18 -19.5t49 -6.5v-18h-221v18q30 0 42.5 6.5t18.5 21t6 55.5v171
q0 74 -4 95q-3 17 -10.5 23t-20.5 6t-32 -8l-8 18l135 55h21v-96z" />
    <glyph glyph-name="n" unicode="n" 
d="M162 366q78 95 150 95q36 0 62.5 -18.5t42.5 -60.5q10 -29 10 -90v-191q0 -42 7 -57q5 -13 17 -19.5t45 -6.5v-18h-222v18h10q31 0 43.5 9.5t17.5 27.5q2 8 2 46v183q0 61 -16 89t-54 28q-58 0 -115 -64v-236q0 -45 5 -56q7 -14 19 -20.5t48 -6.5v-18h-221v18h10
q34 0 46 17t12 66v166q0 81 -3.5 98.5t-11 24t-20.5 6.5q-14 0 -33 -8l-7 18l135 55h21v-95z" />
    <glyph glyph-name="o" unicode="o" 
d="M250 461q102 0 163 -77q52 -66 52 -152q0 -60 -28.5 -121.5t-79 -92.5t-112.5 -31q-101 0 -161 80q-50 68 -50 152q0 62 30.5 123t80 90t105.5 29zM235 429q-26 0 -52 -15.5t-42 -54t-16 -99.5q0 -97 38.5 -168t102.5 -71q47 0 78 39t31 135q0 119 -52 187q-34 47 -88 47
z" />
    <glyph glyph-name="p" unicode="p" 
d="M-1 403l138 56h18v-105q35 59 70 83t73 24q68 0 113 -53q55 -64 55 -168q0 -116 -67 -191q-54 -62 -137 -62q-36 0 -63 10q-19 7 -44 29v-136q0 -46 6 -58.5t19.5 -20t50.5 -7.5v-18h-234v18h12q27 0 46 11q9 5 14 17t5 61v423q0 43 -4 55t-12.5 17.5t-22.5 5.5
q-12 0 -30 -7zM155 325v-167q0 -54 5 -71q7 -28 33.5 -49.5t66.5 -21.5q49 0 79 38q40 50 40 140q0 103 -45 158q-31 38 -74 38q-24 0 -47 -12q-17 -9 -58 -53z" />
    <glyph glyph-name="q" unicode="q" 
d="M427 461v-576q0 -42 6 -54.5t18.5 -19.5t48.5 -7v-18h-226v18h10q27 0 41 8q10 6 16 19.5t6 53.5v193q-45 -53 -78 -72t-69 -19q-65 0 -116 59t-51 158q0 114 67.5 185.5t162.5 71.5q28 0 51.5 -8t41.5 -24q29 14 55 32h16zM347 109v210q0 36 -9.5 57t-34 36t-55.5 15
q-55 0 -94 -46.5t-39 -141.5q0 -90 40 -137t96 -47q29 0 51.5 12.5t44.5 41.5z" />
    <glyph glyph-name="r" unicode="r" horiz-adv-x="333" 
d="M162 461v-101q56 101 115 101q27 0 44.5 -16.5t17.5 -38.5q0 -19 -12.5 -32t-30.5 -13q-17 0 -38 17t-31 17q-9 0 -19 -10q-22 -20 -46 -66v-214q0 -37 9 -56q7 -14 23 -22.5t46 -8.5v-18h-229v18q34 0 51 11q12 7 17 24q3 9 3 48v173q0 78 -3.5 93t-12 22t-21.5 7
q-15 0 -34 -8l-5 18l136 55h20z" />
    <glyph glyph-name="s" unicode="s" horiz-adv-x="389" 
d="M320 461v-153h-16q-18 72 -47 98t-74 26q-35 0 -56 -18t-21 -40q0 -28 16 -47q15 -20 62 -43l71 -34q99 -49 99 -128q0 -61 -46 -98t-103 -37q-41 0 -94 14q-16 5 -27 5t-17 -13h-16v160h16q14 -68 52.5 -103t86.5 -35q33 0 54.5 20t21.5 48q0 33 -24 56t-94.5 58.5
t-92.5 63.5t-22 70q0 55 38 92.5t98 37.5q26 0 64 -12q24 -7 33 -7q8 0 12 3.5t10 15.5h16z" />
    <glyph glyph-name="t" unicode="t" horiz-adv-x="278" 
d="M161 594v-146h105v-35h-105v-290q0 -43 12.5 -58t32.5 -15q16 0 31 10t23 29h19q-17 -48 -48 -72t-64 -24q-23 0 -44.5 12.5t-31.5 35.5t-10 72v300h-71v16q27 11 55 36.5t50 61.5q11 18 31 67h15z" />
    <glyph glyph-name="u" unicode="u" 
d="M423 448v-271q0 -78 4 -95.5t12 -24t19 -6.5q15 0 34 8l7 -17l-134 -55h-22v94q-58 -62 -88 -78t-64 -16q-38 0 -65.5 21.5t-38 55.5t-10.5 97v200q0 31 -7 43.5t-20.5 19t-48.5 5.5v19h157v-300q0 -62 21.5 -81.5t52.5 -19.5q21 0 47.5 13t63.5 50v254q0 38 -14 51
t-58 14v19h152z" />
    <glyph glyph-name="v" unicode="v" 
d="M8 448h211v-19h-14q-19 0 -29 -9t-10 -25q0 -17 10 -40l104 -247l105 256q11 27 11 42q0 6 -4 11q-5 7 -13.5 9.5t-33.5 2.5v19h146v-19q-26 -2 -35 -10q-18 -14 -31 -49l-159 -383h-20l-160 377q-10 26 -20 37.5t-25 19.5q-8 5 -33 8v19z" />
    <glyph glyph-name="w" unicode="w" horiz-adv-x="722" 
d="M6 448h188v-19q-26 -2 -34 -9t-8 -21q0 -15 8 -36l96 -258l96 210l-25 66q-12 29 -31 40q-11 7 -40 8v19h213v-19q-35 -1 -50 -12q-10 -8 -10 -25q0 -10 4 -20l102 -257l94 248q10 26 10 42q0 9 -9.5 16t-37.5 8v19h141v-19q-43 -6 -63 -57l-149 -385h-20l-112 285
l-130 -285h-18l-144 376q-14 35 -27.5 47.5t-43.5 18.5v19z" />
    <glyph glyph-name="x" unicode="x" 
d="M13 448h211v-19q-20 0 -28.5 -6.5t-8.5 -17.5q0 -12 18 -37q5 -7 16 -24l31 -51l37 51q35 48 35 61q0 10 -8 17t-27 7v19h151v-19q-23 -1 -41 -13q-24 -16 -66 -72l-61 -82l112 -160q41 -59 58.5 -71t45.5 -13v-18h-211v18q22 0 34 10q9 6 9 18q0 11 -31 56l-65 96
l-72 -96q-33 -44 -33 -52q0 -12 11 -21.5t33 -10.5v-18h-146v18q17 2 30 12q19 14 63 72l94 125l-85 123q-36 53 -56 66t-50 13v19z" />
    <glyph glyph-name="y" unicode="y" 
d="M6 448h208v-19h-10q-22 0 -33 -9.5t-11 -23.5q0 -19 16 -52l109 -226l100 247q9 20 9 40q0 8 -4 13t-12 8t-29 3v19h145v-19q-18 -2 -27.5 -7.5t-21.5 -21.5q-5 -7 -17 -38l-182 -446q-26 -65 -69 -98.5t-82 -33.5q-29 0 -47.5 17t-18.5 38t13.5 33.5t36.5 12.5
q16 0 44 -11q20 -8 24 -8q15 0 32.5 15.5t34.5 58.5l32 78l-161 337q-7 15 -23 38q-12 17 -20 23q-11 8 -36 13v19z" />
    <glyph glyph-name="z" unicode="z" horiz-adv-x="444" 
d="M420 137l-5 -137h-395v18l297 395h-147q-47 0 -61.5 -6t-24.5 -23q-13 -24 -15 -61h-19l3 125h375v-19l-300 -396h163q51 0 69.5 8.5t29.5 30.5q8 15 13 65h17z" />
    <glyph glyph-name="braceleft" unicode="{" horiz-adv-x="480" 
d="M411 -198v-18q-82 12 -133 67t-51 121q0 36 11.5 82.5t11.5 72.5q0 35 -30 65.5t-82 37.5v20q52 7 82 37t30 66q0 26 -11.5 72t-11.5 82q0 66 51 121.5t133 66.5v-18q-57 -13 -84 -44t-27 -68q0 -29 11 -76t11 -81q0 -49 -36 -95.5t-108 -71.5q71 -26 107.5 -73.5
t36.5 -96.5q0 -33 -11 -80t-11 -76q0 -37 27 -68t84 -45z" />
    <glyph glyph-name="bar" unicode="|" horiz-adv-x="200" 
d="M119 695v-911h-40v911h40z" />
    <glyph glyph-name="braceright" unicode="}" horiz-adv-x="480" 
d="M86 677v18q82 -11 133 -66t51 -122q0 -36 -11 -82t-11 -72q0 -35 29.5 -65.5t81.5 -37.5v-20q-52 -7 -81.5 -37.5t-29.5 -65.5q0 -26 11 -72.5t11 -82.5q0 -66 -51 -121t-133 -67v18q58 14 84.5 44.5t26.5 68.5q0 29 -11.5 76t-11.5 80q0 49 36.5 95.5t108.5 72.5
q-70 25 -107.5 72.5t-37.5 96.5q0 34 11.5 81t11.5 76q0 37 -26.5 68t-84.5 44z" />
    <glyph glyph-name="asciitilde" unicode="~" horiz-adv-x="541" 
d="M509 330h22q-2 -64 -36.5 -99.5t-83.5 -35.5q-22 0 -48 7.5t-134 51.5q-75 31 -107 31q-34 0 -57.5 -21t-33.5 -68h-21q3 65 36 100t78 35q22 0 44 -7q51 -14 133.5 -49.5t116.5 -35.5q37 0 61.5 23.5t29.5 67.5z" />
    <glyph glyph-name="currency" unicode="&#xa4;" 
d="M388 498l70 69l28 -28l-70 -69q50 -64 50 -137q0 -75 -50 -138l70 -71l-28 -27l-70 70q-66 -51 -132 -51q-43 0 -84 15t-60 36l-71 -70l-28 27l70 71q-49 57 -49 137q0 77 49 138l-70 69l28 28l71 -69q25 22 64 36t75 14q34 0 71 -13t66 -37zM250 508q-74 0 -125.5 -52
t-51.5 -125q0 -72 52 -123.5t125 -51.5q72 0 124.5 52t52.5 124q0 44 -24 87t-66 66t-87 23z" />
    <glyph glyph-name="brokenbar" unicode="&#xa6;" horiz-adv-x="200" 
d="M119 695v-363h-40v363h40zM119 147v-363h-40v363h40z" />
    <glyph glyph-name="section" unicode="&#xa7;" 
d="M184 412q-33 36 -46.5 66t-13.5 60q0 57 40 97.5t98 40.5q54 0 89 -32.5t35 -74.5q0 -19 -13 -34q-9 -10 -26 -10q-16 0 -27 11t-11 26q0 8 4 26q2 11 2 21q0 20 -14 33.5t-39 13.5q-35 0 -60 -25t-25 -61q0 -31 13 -52q22 -34 74 -71q98 -71 134 -127q26 -40 26 -84
q0 -45 -26 -89.5t-82 -77.5q34 -38 47 -65.5t13 -58.5q0 -60 -40 -100t-99 -40q-52 0 -87 33.5t-35 76.5q0 18 11.5 30.5t26.5 12.5t25.5 -11.5t10.5 -31.5q0 -13 -3.5 -29t-3.5 -24q0 -14 12 -23q19 -15 46 -15q33 0 59.5 25.5t26.5 55.5t-15 54q-23 36 -85 83
q-92 68 -125 120q-25 40 -25 84q0 45 26.5 89t81.5 77zM200 397q-74 -45 -74 -109q0 -34 18 -63q25 -39 96 -93q34 -26 60 -49q75 45 75 107q0 32 -21.5 66.5t-88.5 86.5q-40 31 -65 54z" />
    <glyph glyph-name="copyright" unicode="&#xa9;" horiz-adv-x="760" 
d="M380 677q87 0 170 -44.5t130 -127.5t47 -174q0 -90 -46 -172.5t-128.5 -128t-172.5 -45.5t-172.5 45.5t-128 128t-45.5 172.5q0 91 46.5 174t129.5 127.5t170 44.5zM380 648q-80 0 -155.5 -41t-118 -117t-42.5 -159q0 -82 41.5 -157t117 -117t157.5 -42t157.5 42t117 117
t41.5 157q0 83 -42.5 159t-118 117t-155.5 41zM551 554l10 -137h-19q-18 58 -56 86.5t-92 28.5q-40 0 -71 -16.5t-52 -44.5q-14 -21 -24 -55.5t-10 -72.5q0 -104 44.5 -153t117.5 -49q95 0 152 79l18 -9q-68 -99 -187 -99q-97 0 -161.5 63t-64.5 153q0 94 68.5 160t174.5 66
q23 0 38 -2.5t53 -15.5q12 -4 18 -4q8 0 13 4t11 18h19z" />
    <glyph glyph-name="guillemotleft" unicode="&#xab;" 
d="M248 -4h-28l-189 231l189 229h28l-119 -229zM469 -4h-29l-192 231l192 229h29l-119 -229z" />
    <glyph glyph-name="logicalnot" unicode="&#xac;" horiz-adv-x="564" 
d="M18 429h527v-198h-39v158h-488v40z" />
    <glyph glyph-name="uni00AD" unicode="&#xad;" horiz-adv-x="333" 
d="M41 261h252v-73h-252v73z" />
    <glyph glyph-name="registered" unicode="&#xae;" horiz-adv-x="760" 
d="M380 677q87 0 170 -44.5t130 -127.5t47 -174q0 -90 -46 -172.5t-128.5 -128t-172.5 -45.5t-172.5 45.5t-128 128t-45.5 172.5q0 91 46.5 174t129.5 127.5t170 44.5zM380 648q-80 0 -155.5 -41t-118 -117t-42.5 -159q0 -82 41.5 -157t117 -117t157.5 -42t157.5 42t117 117
t41.5 157q0 83 -42.5 159t-118 117t-155.5 41zM188 544h189q71 0 108 -32t37 -77q0 -37 -25 -65t-83 -44l102 -145q18 -26 33 -36q9 -6 26 -7v-16h-90l-144 198h-37v-151q3 -16 14 -23.5t44 -7.5v-16h-179v16q23 0 33 5.5t14 16.5q3 8 3 45v256q0 36 -1 42q-3 11 -12.5 17.5
t-31.5 6.5v17zM304 341q58 0 84.5 11t40.5 31.5t14 45.5q0 40 -27.5 67t-70.5 27q-18 0 -41 -8v-174z" />
    <glyph glyph-name="macron" unicode="&#xaf;" 
d="M509 714h-517v41h517v-41z" />
    <glyph glyph-name="degree" unicode="&#xb0;" horiz-adv-x="400" 
d="M198 677q63 0 106.5 -44t43.5 -106t-44 -106t-106 -44t-106 44t-44 106t43.5 106t106.5 44zM198 636q-46 0 -77.5 -31.5t-31.5 -77.5q0 -45 31.5 -77t77.5 -32q45 0 77 32t32 77q0 46 -32 77.5t-77 31.5z" />
    <glyph glyph-name="plusminus" unicode="&#xb1;" horiz-adv-x="549" 
d="M4 69v40h243v204h-243v40h243v242h39v-242h244v-40h-244v-204h245v-40h-527z" />
    <glyph glyph-name="acute" unicode="&#xb4;" horiz-adv-x="333" 
d="M276 679l-144 -169h-17l52 169h109z" />
    <glyph glyph-name="paragraph" unicode="&#xb6;" horiz-adv-x="453" 
d="M390 635v-851h-36v851h-91v-851h-35v510q-94 4 -140 24.5t-70.5 64t-24.5 96.5q0 54 21 88q28 47 75.5 71t123.5 24h242v-27h-65z" />
    <glyph glyph-name="periodcentered" unicode="&#xb7;" horiz-adv-x="250" 
d="M125 385q23 0 38.5 -15.5t15.5 -38.5q0 -22 -16 -38t-38 -16t-38 16t-16 38q0 23 16 38.5t38 15.5z" />
    <glyph glyph-name="ordmasculine" unicode="&#xba;" horiz-adv-x="310" 
d="M158 676q61 0 100.5 -41t39.5 -102t-43.5 -104.5t-102.5 -43.5q-58 0 -98 39.5t-40 100.5q0 68 40.5 109.5t103.5 41.5zM145 655q-26 0 -44 -22t-18 -70q0 -77 34 -126q19 -28 50 -28q27 0 45.5 22t18.5 69q0 76 -35 125q-21 30 -51 30z" />
    <glyph glyph-name="guillemotright" unicode="&#xbb;" 
d="M252 456h28l189 -230l-189 -230h-28l119 230zM31 456h29l192 -230l-192 -230h-29l119 230z" />
    <glyph glyph-name="ring" unicode="&#x2da;" horiz-adv-x="376" 
d="M134 625q0 -11 5.5 -21t14 -18.5t20.5 -13.5t25 -4q13 -1 24 3.5t20 13t14 19t5 20.5q0 11 -5 20.5t-14 17t-20.5 12t-23.5 4.5q-13 0 -24.5 -4t-20.5 -11.5t-14.5 -17t-5.5 -20.5zM97 625q0 19 8 36t21.5 30t32 21t39.5 8q20 0 38.5 -8t32.5 -21t22 -30.5t8 -36.5
q0 -21 -8 -38.5t-22 -31t-32 -21.5t-38 -8q-23 0 -41.5 8t-32 21.5t-21 32t-7.5 38.5z" />
    <glyph glyph-name="tilde" unicode="&#x2dc;" horiz-adv-x="333" 
d="M26 536h-15q2 67 27.5 96.5t64.5 29.5q20 0 36 -6q22 -8 62.5 -35t59.5 -27q16 0 28 13.5t19 54.5h15q0 -45 -12.5 -71.5t-35 -41.5t-45.5 -15q-39 0 -96 39q-30 21 -41 25.5t-21 4.5q-20 0 -32 -18q-5 -8 -14 -49z" />
    <glyph glyph-name="uni10A0" unicode="&#x10a0;" horiz-adv-x="551" 
d="M501 154q0 -82 -60 -133t-165 -51q-101 0 -163.5 47t-62.5 139v32q0 48 58 113l58 -28q-16 -31 -16 -85v-34q0 -51 32 -103.5t94 -52.5q66 0 96 44t30 112v70q0 134 -103 225q-111 97 -111 179v30h94v-30q0 -102 105 -192q114 -99 114 -212v-70z" />
    <glyph glyph-name="uni10A1" unicode="&#x10a1;" horiz-adv-x="551" 
d="M150 173q0 -100 38.5 -136.5t87.5 -36.5q57 0 91.5 36.5t34.5 131.5v79q0 107 -38 141.5t-88 34.5q-48 0 -87 -35t-39 -140v-75zM256 663q-1 -45 60.5 -74t-2.5 -139q58 0 122.5 -59t64.5 -141v-90q0 -77 -67 -133.5t-158 -56.5q-97 0 -161.5 57t-64.5 135v88
q0 82 71 141t141 59q26 106 -44.5 138.5t-70.5 74.5h109z" />
    <glyph glyph-name="uni10A2" unicode="&#x10a2;" horiz-adv-x="619" 
d="M469 223q0 67 -42.5 120t-93.5 53h-35q-73 0 -110.5 -54t-36.5 -134v-29q-1 -72 40.5 -126t118.5 -54q86 -1 122.5 54t36.5 125v45zM569 172q0 -95 -77.5 -148.5t-183.5 -53.5q-107 1 -182.5 62t-75.5 140v39q0 85 73.5 150t193.5 68q48 37 48 109q0 43 -19.5 69.5
t-64.5 26.5q-32 0 -55 -22t-23 -53v-43h-92v43q0 47 51 75.5t120 28.5q76 0 125.5 -29t49.5 -89q0 -49 -90 -119q57 -4 129.5 -61t72.5 -153v-40z" />
    <glyph glyph-name="uni10A3" unicode="&#x10a3;" horiz-adv-x="819" 
d="M670 453q0 108 -28.5 144.5t-81.5 36.5t-81.5 -37t-28.5 -143v-75q0 -70 19.5 -127t90.5 -57t91 57t19 124v77zM579 -25h-169q-149 0 -254.5 115t-105.5 328v8q0 113 53.5 172.5t155.5 59.5q90 0 133 -70q51 75 168 75q90 0 149.5 -46.5t59.5 -163.5v-79q0 -108 -61 -160
t-148 -52q-93 0 -152 55t-59 161v72q0 47 24 103q-49 76 -116 76q-47 0 -76.5 -42t-30.5 -161v-22q0 -182 67.5 -278t192.5 -96q81 5 169 32v-87z" />
    <glyph glyph-name="uni10A4" unicode="&#x10a4;" horiz-adv-x="556" 
d="M496 117q0 -70 -63.5 -108t-161.5 -39q-102 1 -164 48t-62 108q0 113 114 170l32 -28q-46 -31 -46 -143q0 -62 31 -94t95 -32q59 0 92.5 29.5t33.5 89.5v406q0 54 -31 82t-77 28q-53 0 -83.5 -28.5t-30.5 -78.5q0 -46 15 -77l-58 -25q-52 51 -52 100q0 70 64.5 104
t138.5 34q101 0 157 -40t56 -99v-407z" />
    <glyph glyph-name="uni10A5" unicode="&#x10a5;" horiz-adv-x="546" 
d="M496 119q0 -69 -66 -109t-159 -40q-98 0 -162 44.5t-64 102.5v38q0 51 85 101l39 -22q-24 -25 -24 -82v-30q0 -49 32.5 -85.5t93.5 -36.5q67 0 96.5 32.5t29.5 86.5v82q0 127 -71 127l-99 -10v61l102 -10q57 1 57 132v20q0 51 -28.5 82t-80.5 31q-61 0 -91.5 -30.5
t-30.5 -70.5v-15q0 -35 18 -68l-62 -26q-44 45 -44 91v23q0 55 50 90t160 35q94 0 151.5 -35.5t57.5 -101.5v-33q0 -75 -104 -139v-9q114 -34 114 -144v-82z" />
    <glyph glyph-name="uni10A6" unicode="&#x10a6;" horiz-adv-x="619" 
d="M312 546q0 41 -23.5 64t-60.5 23q-43 0 -63.5 -25t-20.5 -64v-28q0 -37 23 -60.5t68 -23.5t61 23t16 61v30zM197 182q0 -77 38.5 -129.5t100.5 -52.5q66 0 99.5 52.5t33.5 134.5v34q0 87 -39 134t-92 47q-68 0 -104.5 -46.5t-36.5 -126.5v-47zM408 537q0 -35 -30.5 -67
t-67.5 -42q119 0 189 -54.5t70 -133.5v-69q0 -96 -68.5 -148.5t-167.5 -52.5q-103 0 -169 53t-66 148v66q0 63 43.5 108.5t88.5 57.5q-61 -1 -120.5 36t-59.5 92v15q0 48 48 82.5t129 34.5q86 0 133.5 -34.5t47.5 -85.5v-6z" />
    <glyph glyph-name="uni10A7" unicode="&#x10a7;" horiz-adv-x="810" 
d="M370 495q0 72 -34 105.5t-72 33.5q-55 0 -84.5 -59t-29.5 -169v-169q0 -115 31 -176.5t78 -61.5q52 0 81.5 59t29.5 155v282zM759 261q0 -188 -142 -291h-63q107 106 106 286l1 185q0 105 -29 149t-64 44q-38 0 -68 -36.5t-30 -102.5v-280q1 -118 -56.5 -181t-154.5 -64
q-100 1 -154.5 63.5t-54.5 195.5v195q0 124 55 181.5t159 57.5q111 0 177 -87q46 87 132 87q83 0 134.5 -55t52.5 -198z" />
    <glyph glyph-name="uni10A8" unicode="&#x10a8;" horiz-adv-x="531" 
d="M481 254q0 -191 -119 -284h-49q68 93 68 258v176q0 131 -34 180.5t-81 49.5q-53 0 -84.5 -50t-31.5 -180v-175q0 -167 68 -259h-49q-119 93 -119 284v154q0 143 61.5 199t154.5 56q99 0 156.5 -56t58.5 -203v-150z" />
    <glyph glyph-name="uni10A9" unicode="&#x10a9;" horiz-adv-x="541" 
d="M491 144q0 -80 -66 -126.5t-159 -47.5q-103 1 -164.5 45.5t-61.5 99.5v42q0 64 91 104l27 -28q-18 -26 -18 -85v-22q0 -45 32.5 -85.5t93.5 -40.5q62 0 94 36.5t32 107.5v52q0 84 -29.5 123.5t-72.5 39.5l-115 -9v56l110 -10q39 0 62.5 25t23.5 77v32q-1 52 -30 73.5
t-46 21.5v38q59 0 117.5 -36.5t58.5 -96.5v-17q0 -82 -124 -131l-1 -11q145 -48 145 -175v-52z" />
    <glyph glyph-name="uni10AA" unicode="&#x10aa;" horiz-adv-x="1008" 
d="M958 431q0 -104 -136 -239l-23 34q61 109 61 212v36q0 77 -28 119.5t-61 42.5q-44 0 -72 -36t-28 -113v-155h-84v155q0 86 -27.5 119t-60.5 33q-36 0 -62 -33t-26 -116v-158h-83v159q0 77 -28.5 111t-59.5 34q-37 0 -63.5 -45t-26.5 -135v-44q0 -192 109.5 -287
t258.5 -95q109 5 192 35v-90h-180q-216 0 -348 127.5t-132 316.5v40q0 105 54.5 155t135.5 50q87 0 133 -75q32 80 125 80q90 0 131 -78q50 73 141 73q80 0 134 -51t54 -134v-48z" />
    <glyph glyph-name="uni10AB" unicode="&#x10ab;" horiz-adv-x="561" 
d="M402 273q0 67 -29.5 107t-96.5 40q-62 0 -94 -41t-32 -119v-90q0 -85 36 -127.5t90 -42.5q55 0 90.5 42t35.5 118v113zM501 148q0 -75 -63 -126t-162 -52q-85 1 -155.5 50t-70.5 150v84q0 94 69 145t159 51q98 0 129 -51v115q0 72 -36.5 95.5t-86.5 23.5t-80.5 -26.5
t-30.5 -61.5v-17h-99v17q-1 50 60 84t149 34t153 -29t65 -120v-366z" />
    <glyph glyph-name="uni10AC" unicode="&#x10ac;" horiz-adv-x="561" 
d="M411 268q0 71 -33.5 112t-91.5 41q-67 0 -97 -39t-29 -115v-114q0 -83 42.5 -118t82.5 -35q70 0 98 43.5t28 114.5v110zM511 151q0 -87 -65.5 -134t-160.5 -47q-84 0 -154.5 45.5t-70.5 136.5v401q0 59 40 84.5t101 25.5q51 0 89 -11.5t73 -11.5q62 0 129 27l1 -50
q-41 -38 -106 -38q-50 0 -94 26t-81 26q-33 0 -46.5 -15t-13.5 -66v-165q48 65 133 65q109 0 167 -49.5t59 -130.5v-119z" />
    <glyph glyph-name="uni10AD" unicode="&#x10ad;" horiz-adv-x="821" 
d="M670 403q0 135 -29 183t-75 48q-50 0 -82.5 -33t-32.5 -113v-271h-80v271q0 79 -26.5 112.5t-89.5 33.5q-46 0 -75.5 -48.5t-29.5 -182.5v-120q0 -203 148 -308h-77q-171 103 -171 321v115q0 133 63 192.5t143 59.5q115 0 157 -92q42 92 154 92q92 0 148 -59.5t56 -192.5
v-114q0 -219 -179 -322h-73q151 105 151 308v120z" />
    <glyph glyph-name="uni10AE" unicode="&#x10ae;" horiz-adv-x="551" 
d="M501 150q0 -69 -59 -124.5t-166 -55.5q-89 0 -157.5 47.5t-68.5 116.5v44q0 48 47 107l67 -30q-14 -35 -14 -88v-16q0 -58 33 -105t93 -47q66 0 96 49t30 108v19q0 88 -27.5 121.5t-66.5 33.5h-73v40h73q29 0 45.5 20.5t17.5 73.5q0 64 -104.5 99t-104.5 101h110
q0 -80 94.5 -99.5t94.5 -98.5q0 -82 -110 -111v-5q150 -56 150 -173v-27z" />
    <glyph glyph-name="uni10AF" unicode="&#x10af;" horiz-adv-x="556" 
d="M496 141q0 -64 -56 -117.5t-169 -53.5q-121 0 -173.5 47.5t-52.5 116.5q0 58 62 119l54 -27q-16 -36 -16 -85q0 -53 32.5 -97t93.5 -44q72 0 99 49t27 97v491l-220 -23v-11q135 -42 134 -134q1 -126 -266 -126v83q192 -56 193 44q0 66 -53 98.5t-140 26.5v31l451 46v-531
z" />
    <glyph glyph-name="uni10B0" unicode="&#x10b0;" horiz-adv-x="862" 
d="M812 231q0 -158 -176 -256h-77q153 90 153 256v30q0 81 -29.5 120.5t-85.5 39.5q-122 0 -122 -149v-87h-89v87q0 149 -121 149q-51 0 -83 -33.5t-32 -126.5v-30q0 -166 170 -256h-88q-182 88 -182 256v30q0 152 170.5 277t399.5 125l-1 -70q-134 9 -263 -30.5
t-188 -144.5q42 33 97 33q107 0 166 -95q62 95 166 95q92 0 153.5 -50t61.5 -140v-30z" />
    <glyph glyph-name="uni10B1" unicode="&#x10b1;" horiz-adv-x="560" 
d="M509 169q1 -92 -60.5 -145.5t-163.5 -53.5q-101 0 -163 51.5t-62 155.5v485l100 -15v-470q0 -85 29 -132t96 -47q63 0 94 49.5t31 121.5v19q0 69 -46 123.5t-46 104.5q0 40 38 87l61 -30q-40 -32 -41 -60q1 -44 67 -90.5t66 -134.5v-19z" />
    <glyph glyph-name="uni10B2" unicode="&#x10b2;" horiz-adv-x="696" 
d="M547 377q0 152 -56.5 202t-112.5 50l19 -332h-102l18 332q-51 -1 -107 -50.5t-56 -201.5v-151q0 -107 60.5 -166.5t137.5 -59.5q81 0 140 59.5t59 166.5v151zM646 226q0 -104 -85.5 -180t-212.5 -76q-131 0 -214.5 76t-83.5 180v151q0 125 81.5 199.5t181.5 74.5v22h66
l-1 -22q100 0 184 -75t84 -199v-151z" />
    <glyph glyph-name="uni10B3" unicode="&#x10b3;" horiz-adv-x="587" 
d="M527 158q0 -80 -49 -134t-165 -54q-101 0 -168.5 46.5t-67.5 128.5v25q0 83 99 130l21 -22q-20 -30 -20 -88v-47q0 -67 38 -105t98 -38q64 0 90 38t26 122v418q0 16 -14.5 35.5t-53.5 19.5q-35 0 -48 -22t-13 -47v-151h-72v151q0 25 -10 47t-45 22q-34 0 -50 -32.5
t-46 -32.5q-21 0 -47 12v82q24 -35 49 -35t42.5 17.5t45.5 17.5q66 0 98 -66q40 66 115 66q57 0 102 -22t45 -77v-405z" />
    <glyph glyph-name="uni10B4" unicode="&#x10b4;" horiz-adv-x="842" 
d="M381 474q0 98 -31.5 129t-84.5 30q-54 1 -84.5 -30t-30.5 -124v-49q0 -80 20 -123t95 -43q71 0 93.5 43t22.5 123v44zM765 130q0 -63 -70.5 -111.5t-213.5 -48.5q-135 0 -205.5 48.5t-70.5 136.5h96q0 -70 51.5 -112.5t128.5 -42.5q90 0 137.5 41t47.5 89v42
q0 46 -16 75.5t-53 29.5h-71v45h81q45 0 65.5 41.5t20.5 99.5v33q0 63 -24 100t-69 37t-85 -30.5t-40 -74.5l1 -99q-1 -94 -57 -145t-154 -51q-101 0 -158 51.5t-57 145.5v44q0 101 56.5 145t160.5 44q148 0 186 -86q55 86 149 86q86 0 138 -49t52 -121v-15
q0 -114 -151 -174v-10q124 -38 124 -136v-28z" />
    <glyph glyph-name="uni10B5" unicode="&#x10b5;" horiz-adv-x="555" 
d="M495 120q0 -57 -55 -103.5t-167 -46.5q-94 0 -158.5 45.5t-64.5 109.5v9q0 43 54 86h64q-19 -47 -19 -88v-12q0 -50 31 -86t93 -36q66 0 95 37t29 81v222q-2 80 -44 124.5t-100 44.5q-37 0 -58 -25t-21 -62q0 -41 22 -82h-69q-45 42 -45 82q1 55 50.5 85.5t120.5 30.5
q87 0 149 -66v169l-101 -19v34l194 9v-543z" />
    <glyph glyph-name="uni10B6" unicode="&#x10b6;" horiz-adv-x="799" 
d="M749 431q0 -115 -108 -211l-31 29q40 76 40 157v49q0 93 -14.5 136t-84.5 43q-50 0 -78.5 -26.5t-28.5 -112.5v-152h-89v152q-1 86 -29 112.5t-75 26.5q-55 0 -78 -47t-23 -158v-41q0 -209 103.5 -283.5t208.5 -74.5q51 4 122 36l1 -91h-123q-149 0 -280.5 105
t-131.5 306v42q0 105 50 170t150 65q104 0 149 -77q45 77 149 77q117 0 159 -51.5t42 -153.5v-27z" />
    <glyph glyph-name="uni10B7" unicode="&#x10b7;" horiz-adv-x="561" 
d="M501 142q0 -81 -52 -126.5t-173 -45.5q-109 0 -167.5 39t-58.5 95q0 47 71 95h58q-29 -60 -29 -94q0 -38 30.5 -71.5t95.5 -33.5q76 0 101 42t25 109v169q-48 -46 -135 -46q-81 0 -141 43t-60 141v21q-1 96 122 185h58q-81 -109 -81 -174v-45q0 -78 33 -108.5t74 -30.5
q59 0 94.5 31t35.5 71v238l99 16v-520z" />
    <glyph glyph-name="uni10B8" unicode="&#x10b8;" horiz-adv-x="591" 
d="M431 248q0 85 -35 128.5t-99 43.5q-68 0 -103.5 -60.5t-35.5 -123.5v-59q0 -59 36.5 -118t100.5 -59q67 0 101.5 59t34.5 108v81zM531 181q0 -105 -60.5 -158t-175.5 -53q-106 0 -171 63.5t-65 141.5v73q-1 80 63.5 141.5t172.5 61.5q82 0 142 -61l-1 155q0 43 -8.5 66
t-56.5 23q-34 0 -44 -24.5t-10 -64.5v-15h-85v15q0 39 -9 64t-41 25q-31 0 -44.5 -15.5t-13.5 -49.5v-51h-84v51q0 42 38.5 68.5t78.5 26.5q72 0 116 -57q41 57 105 57q88 0 120.5 -41t32.5 -114v-328z" />
    <glyph glyph-name="uni10B9" unicode="&#x10b9;" horiz-adv-x="560" 
d="M293 495q7 33 7 64q0 76 -67 75q-80 1 -80 -88v-158q45 62 132 62q113 0 169 -57.5t56 -140.5v-50q0 -101 -111 -230h-63q75 93 75 232v44q0 71 -28.5 121.5t-97.5 50.5q-57 0 -94 -38t-37 -83v-324h-94v575q0 37 38 75.5t132 37.5q57 1 110 -23.5t52 -68.5
q0 -56 -81 -92z" />
    <glyph glyph-name="uni10BA" unicode="&#x10ba;" horiz-adv-x="603" 
d="M553 172q0 -82 -66.5 -142t-180.5 -60q-124 0 -190 75.5t-66 165.5v183q0 172 99 267h62q-62 -101 -61 -267v-183q0 -71 43.5 -141t111.5 -70q77 0 113 55.5t36 116.5v35q0 57 -26.5 94t-78.5 37l-90 -10v66l90 -9q45 0 65.5 26t20.5 67q0 65 -67 97t-67 88h87
q0 -63 72.5 -95.5t73.5 -87.5q-1 -80 -148 -113v-12q167 -28 167 -146v-37z" />
    <glyph glyph-name="uni10BB" unicode="&#x10bb;" horiz-adv-x="561" 
d="M402 281q0 47 -33.5 93.5t-92.5 46.5q-61 0 -93.5 -42t-32.5 -117v-107q0 -73 31.5 -115t95.5 -42q70 0 97.5 52t27.5 108v123zM501 155q0 -68 -56 -126.5t-168 -58.5q-119 0 -173 59t-54 134v104q0 91 57 136.5t169 45.5q84 0 126 -61v259l99 16v-508z" />
    <glyph glyph-name="uni10BC" unicode="&#x10bc;" horiz-adv-x="591" 
d="M160 167q0 -49 34.5 -108t101.5 -59q64 0 100.5 59t36.5 118v59q0 63 -35.5 123.5t-103.5 60.5q-64 0 -99 -43.5t-35 -128.5v-81zM60 509q0 73 32.5 114t120.5 41q64 0 105 -57q44 57 116 57q40 0 78.5 -26.5t38.5 -68.5v-51h-84v51q0 34 -13.5 51.5t-44.5 17.5
q-32 0 -41 -27t-9 -66v-15h-85v15q0 40 -10 66.5t-44 26.5q-48 0 -56.5 -17.5t-8.5 -75.5l-1 -155q60 61 142 61q108 0 172.5 -61.5t63.5 -141.5v-73q0 -78 -65 -141t-171 -64q-115 1 -175.5 53.5t-60.5 157.5v328z" />
    <glyph glyph-name="uni10BD" unicode="&#x10bd;" horiz-adv-x="551" 
d="M291 487h-68q-55 0 -56 -57q1 -62 57 -62h78zM387 337q0 -43 57 -91t57 -123q0 -62 -52.5 -107.5t-171.5 -45.5q-109 0 -168 44t-59 110q0 65 100 117l31 -21q-31 -50 -31 -98q0 -42 34 -83t93 -41q69 0 97 38t28 100q0 65 -48.5 116.5t-48.5 84.5h-80q-122 0 -123 93
q1 85 123 85h66v118l-91 -17v33l177 14v-148h98v-28h-98l7 -119h91v-31h-88z" />
    <glyph glyph-name="uni10BE" unicode="&#x10be;" horiz-adv-x="561" 
d="M159 157q0 -56 27.5 -107.5t97.5 -51.5q64 0 95.5 42t31.5 114v107q0 77 -32.5 118.5t-93.5 41.5q-59 0 -92.5 -46t-33.5 -95v-123zM60 663l99 -16v-259q41 62 126 62q112 0 169 -45.5t57 -138.5v-104q0 -75 -54 -133.5t-173 -58.5q-112 0 -168 58t-56 126v509z" />
    <glyph glyph-name="uni10BF" unicode="&#x10bf;" horiz-adv-x="551" 
d="M69 557h165l-10 96l89 18l-22 -114h188v-55h-183q0 -54 102.5 -150t102.5 -179v-28q0 -72 -60 -123.5t-165 -51.5q-95 0 -160.5 55t-65.5 115v40q0 82 119 144l26 -27q-45 -41 -45 -121v-31q0 -71 38 -109t88 -38q67 0 96.5 41.5t29.5 101.5v35q0 73 -82 175.5t-82 150.5
h-169v55z" />
    <glyph glyph-name="uni10C0" unicode="&#x10c0;" horiz-adv-x="551" 
d="M501 131q0 -74 -59.5 -117.5t-164.5 -43.5q-111 0 -169 50.5t-58 153.5h100q0 -70 30.5 -122t96.5 -52q60 0 92.5 33t32.5 89q0 140 -69 140l-102 -9v51l102 -9q53 0 53 75q0 65 -68 65l-103 -9v53l103 -9q53 -1 53 70q0 70 -58 81.5t-146 -8.5v50q109 0 204 -17t98 -86
q1 -59 -90 -95v-11q106 -29 106 -83q0 -60 -101 -92v-10q117 -23 117 -138z" />
    <glyph glyph-name="uni10D0" unicode="&#x10d0;" horiz-adv-x="414" 
d="M379 157q0 -61 -47 -109t-123 -48q-70 0 -122 42t-52 109q0 46 45 89h56q-11 -41 -11 -84q0 -72 17 -99t67 -27q51 0 65.5 26.5t14.5 100.5q0 115 -68.5 154.5t-68.5 105.5h74q0 -66 76.5 -126t76.5 -134z" />
    <glyph glyph-name="uni10D1" unicode="&#x10d1;" horiz-adv-x="430" 
d="M125 190q0 -93 22.5 -126.5t67.5 -33.5q50 0 70 33t20 129q0 95 -23 126.5t-67 41.5q-51 -10 -70.5 -41.5t-19.5 -128.5zM179 656q-1 -50 51.5 -109t3.5 -166q48 0 104.5 -49t56.5 -143q0 -86 -51 -137.5t-130 -51.5q-72 0 -125.5 49t-53.5 141q0 97 56 144t110 47
q45 107 -30.5 164.5t-75.5 110.5h84z" />
    <glyph glyph-name="uni10D2" unicode="&#x10d2;" horiz-adv-x="477" 
d="M120 -48q0 -99 27.5 -131t87.5 -31q50 -1 86 31t36 127q0 87 -39 125t-78 54q-45 -19 -82.5 -55.5t-37.5 -119.5zM447 -52q0 -74 -60.5 -131t-151.5 -57q-76 0 -140.5 56.5t-64.5 135.5q0 85 72 136.5t127 59.5q69 43 69 122q0 52 -19 70.5t-56 18.5q-33 0 -53 -13.5
t-20 -57.5v-57h-41q-33 19 -34 55q1 40 44 71t104 31q58 0 102.5 -30t44.5 -86t-96 -127q55 -21 114 -66t59 -131z" />
    <glyph glyph-name="uni10D3" unicode="&#x10d3;" horiz-adv-x="658" 
d="M533 197q0 84 -16.5 118.5t-68.5 34.5q-60 0 -72.5 -34.5t-12.5 -124.5q0 -79 12 -114t73 -35q53 0 69 35t16 120zM273 193q0 60 28 108q-40 49 -94 49q-46 0 -64 -27t-18 -117q0 -211 159 -273q173 -70 199 -170h-95q-35 129 -129 126q-43 -1 -135 -51v59l119 12v4
q-208 97 -208 292q0 78 48 126.5t124 48.5q67 0 113 -58q54 58 127 58q78 0 127 -51.5t49 -129.5q0 -85 -49 -135.5t-126 -50.5q-81 0 -128 50.5t-47 129.5z" />
    <glyph glyph-name="uni10D4" unicode="&#x10d4;" horiz-adv-x="440" 
d="M405 -84q0 -71 -56 -113.5t-131 -42.5q-80 0 -131.5 44.5t-51.5 113.5q0 61 43 122h57q-10 -65 -10 -122q0 -74 21 -101t73 -27q47 0 74 35t27 91v337q0 51 -24 74t-59 23q-49 0 -67 -24t-18 -79q0 -47 8 -94h-60q-30 47 -30 87q0 66 44 103t122 37q72 0 120.5 -32
t48.5 -100v-332z" />
    <glyph glyph-name="uni10D5" unicode="&#x10d5;" horiz-adv-x="430" 
d="M395 -84q0 -78 -45.5 -117t-135.5 -39q-81 0 -130 43.5t-49 103.5q0 65 44 116h56q-10 -53 -10 -114q0 -45 15 -82t74 -37q67 0 79 35t12 92v70q0 106 -58 106l-63 -10v48l64 -10q57 0 57 132q0 46 -16 72t-69 26q-54 0 -70 -28t-16 -83q0 -17 8 -65h-61q-26 42 -26 77
q0 66 50.5 97t114.5 31q72 0 123.5 -33.5t51.5 -95.5q0 -85 -106 -140v-7q106 -48 106 -124v-64z" />
    <glyph glyph-name="uni10D6" unicode="&#x10d6;" horiz-adv-x="454" 
d="M93 524q0 -47 15.5 -82.5t58.5 -35.5q46 0 64 29t17 90q1 39 -11 66.5t-67 27.5q-46 0 -61.5 -28.5t-15.5 -66.5zM149 190q0 -55 15 -107.5t77 -52.5q61 0 74.5 53t13.5 107q0 73 -19 116.5t-72 43.5q-60 0 -74.5 -40.5t-14.5 -119.5zM329 525q0 -65 -37 -99.5t-88 -45.5
q114 0 164 -54t51 -136q-1 -92 -55 -141t-126 -49q-79 0 -129 48.5t-50 141.5q0 84 36.5 129t93.5 61q-99 0 -136.5 39.5t-37.5 104.5q0 51 40 88t115 37q77 0 118 -37t41 -87z" />
    <glyph glyph-name="uni10D7" unicode="&#x10d7;" horiz-adv-x="681" 
d="M305 195q0 78 -16 116.5t-75 38.5q-56 0 -72.5 -39t-16.5 -115q0 -84 17.5 -125t71.5 -41q50 0 70.5 41.5t20.5 123.5zM395 190q0 -87 -50.5 -138.5t-130.5 -51.5q-75 0 -127 51t-52 145q0 88 52.5 136t126.5 48q81 0 139 -60q43 60 119 60q73 0 123.5 -51t50.5 -131
q0 -120 -131 -201h-78q117 60 117 201q0 75 -17 113.5t-66 38.5q-60 0 -100 -55q24 -50 24 -105z" />
    <glyph glyph-name="uni10D8" unicode="&#x10d8;" horiz-adv-x="430" 
d="M217 380q78 0 128 -46.5t50 -133.5q0 -97 -82 -200h-45q37 101 37 200q0 81 -22.5 115.5t-65.5 34.5q-42 0 -67 -34.5t-25 -115.5q0 -100 38 -200h-45q-83 102 -83 200q0 88 51.5 134t130.5 46z" />
    <glyph glyph-name="uni10D9" unicode="&#x10d9;" horiz-adv-x="425" 
d="M390 -87q0 -70 -54.5 -111.5t-125.5 -41.5q-76 0 -128 42.5t-52 110.5q0 61 41 109h57q-8 -41 -8 -109q0 -58 19 -90.5t71 -32.5q54 0 72 32t18 91v44q-6 146 -107 146l-58 -5v46l59 -5q95 0 95 118q0 64 -35 123h46q74 -51 74 -120q0 -88 -134 -135v-10
q150 -41 150 -156v-46z" />
    <glyph glyph-name="uni10DA" unicode="&#x10da;" horiz-adv-x="872" 
d="M837 212q0 -97 -112 -192h-55q78 83 78 192q0 136 -71 136q-41 0 -68 -26.5t-27 -62.5v-126h-63v128q0 42 -19 67t-57 25q-37 0 -59.5 -25t-22.5 -67v-128h-62v128q0 34 -28 60.5t-74 26.5q-72 0 -72 -152q1 -176 252 -250q219 -89 239 -186h-99q-75 140 -188 141
q-75 -1 -180 -60v72l131 15v8q-245 96 -245 261q0 180 163 180q86 0 129 -60q39 66 115 66q79 0 112 -75q47 69 122 69q161 0 161 -165z" />
    <glyph glyph-name="uni10DB" unicode="&#x10db;" horiz-adv-x="445" 
d="M215 350q-56 0 -73 -31.5t-17 -129.5q1 -73 20.5 -116t68.5 -43q57 0 76.5 43.5t19.5 110.5q0 104 -24.5 135t-70.5 31zM35 190q0 89 52 139.5t127 50.5q50 0 96 -40v152q0 82 -31 104.5t-67 22.5q-35 0 -59.5 -15.5t-24.5 -58.5q0 -29 8 -65h-67q-14 28 -14 65
q0 49 46 76.5t112 27.5q91 0 136.5 -41.5t45.5 -114.5v-311q0 -84 -50.5 -133t-130.5 -49q-86 0 -132.5 56t-46.5 134z" />
    <glyph glyph-name="uni10DC" unicode="&#x10dc;" horiz-adv-x="445" 
d="M320 189q0 74 -19 117.5t-71 43.5q-43 0 -69 -43t-26 -117q0 -77 24 -118.5t70 -41.5q41 0 66 40.5t25 118.5zM410 190q0 -80 -49 -135t-132 -55q-79 0 -129 49.5t-50 140.5v327q0 59 43.5 95.5t109.5 36.5h83q22 0 22 30h87q0 -78 -110 -78q-94 23 -122 14t-28 -65v-214
q47 44 95 44q83 0 131.5 -48.5t48.5 -141.5z" />
    <glyph glyph-name="uni10DD" unicode="&#x10dd;" horiz-adv-x="651" 
d="M296 172v69q0 51 -22.5 80t-69.5 29q-46 0 -62.5 -38.5t-16.5 -91.5q0 -144 125 -220h-75q-140 91 -140 208q0 90 52.5 131t116.5 41q81 0 124 -76q40 76 120 76q69 0 118.5 -39.5t49.5 -132.5q0 -117 -141 -208h-74q125 76 125 208q0 65 -14 103.5t-64 38.5
q-45 0 -68 -29t-23 -80v-69h-61z" />
    <glyph glyph-name="uni10DE" unicode="&#x10de;" horiz-adv-x="430" 
d="M374 488q0 -77 -115 -113v-11q136 -62 136 -190q0 -75 -49 -124.5t-132 -49.5q-78 0 -128.5 45.5t-50.5 97.5q0 70 44 101h52q-6 -43 -6 -78q0 -62 18 -99t71 -37q52 0 71.5 37t19.5 107q0 177 -98 177h-54v36h54q76 1 76 103q0 79 -78 95.5t-78 63.5h84q0 -52 81.5 -70
t81.5 -91z" />
    <glyph glyph-name="uni10DF" unicode="&#x10df;" horiz-adv-x="440" 
d="M395 -88q0 -64 -50.5 -108t-127.5 -44q-76 0 -129 42t-53 97q0 45 54 87h46l-10 -87q0 -47 17.5 -78t73.5 -31q51 0 72.5 31t21.5 91v435q-86 -65 -195 -66v-12q58 -11 92 -38.5t34 -65.5q-1 -42 -40 -74t-97 -32h-69v91q46 -65 82 -65q27 0 44 21t17 52q0 64 -47 81.5
t-96 4.5v61q156 -8 286 75h74v-468z" />
    <glyph glyph-name="uni10E0" unicode="&#x10e0;" horiz-adv-x="649" 
d="M523 206q1 79 -14 111.5t-57 32.5q-41 0 -70.5 -26t-29.5 -81v-69h-55v69q0 55 -26.5 81t-66.5 26q-51 0 -65 -39t-14 -106q0 -143 112 -209h-73q-129 92 -129 210q0 103 133.5 200.5t151.5 242.5h85q0 -53 -67.5 -135.5t-179.5 -139.5l5 -5q19 11 53 11q61 0 109 -82
q37 82 125 82q71 0 117.5 -49t46.5 -125q0 -118 -131 -210h-72q113 66 112 210z" />
    <glyph glyph-name="uni10E1" unicode="&#x10e1;" horiz-adv-x="445" 
d="M410 168q0 -69 -46 -118.5t-135 -49.5q-87 0 -133 54t-46 143v452l82 -14v-438q0 -89 27 -128t70 -39q39 0 65 35.5t26 108.5q0 58 -35.5 103.5t-35.5 87.5q0 43 18 77h55q-23 -35 -23 -77q0 -38 55.5 -87t55.5 -110z" />
    <glyph glyph-name="uni10E2" unicode="&#x10e2;" horiz-adv-x="556" 
d="M268 346q-44 0 -93.5 -47.5t-49.5 -229.5q0 -158 44 -218.5t111 -60.5q68 0 109 61t41 217q0 184 -51 231t-91 47l25 -251h-70zM35 68q0 155 72 227t161 72l-29 122h78l-29 -122q87 0 160 -72t73 -227q0 -147 -65.5 -227.5t-175.5 -80.5q-112 0 -178.5 81t-66.5 227z" />
    <glyph glyph-name="uni10E3" unicode="&#x10e3;" horiz-adv-x="458" 
d="M418 -81q0 -78 -50 -118.5t-125 -40.5q-76 0 -131 43t-54 115q0 58 46 122h55q-11 -62 -11 -121q0 -58 17 -93.5t79 -35.5q50 0 69.5 28t19.5 100v354q-1 78 -46 78q-35 0 -45.5 -30t-10.5 -94v-56h-47v56q0 65 -11 94.5t-29 29.5t-31.5 -27t-45.5 -27h-32v75
q22 -15 35 -15q18 0 31.5 12t42.5 12q41 0 65 -74q22 74 81 74q57 0 92.5 -33.5t35.5 -80.5v-347z" />
    <glyph glyph-name="uni10E4" unicode="&#x10e4;" horiz-adv-x="622" 
d="M274 197q0 93 -11 123.5t-62 30.5t-63.5 -35t-12.5 -119q0 -79 10 -113t62 -34q51 0 64 34t13 113zM354 199q-4 -95 -45 -136t-112 -41q-63 0 -112.5 41t-49.5 135q0 84 44 133t122 49q61 0 109 -55q49 55 116 55q68 0 114.5 -36t46.5 -105q0 -115 -107 -159v-10
q97 -37 97 -129v-27q0 -70 -51.5 -112t-158.5 -42q-103 0 -156.5 34t-53.5 91q0 42 42 81h54q-6 -38 -6 -64q0 -52 19.5 -82t99.5 -30q83 1 102 27.5t19 95.5v25q0 124 -43 124h-37v29h47q43 -1 43 136q0 69 -14 96t-61 27q-56 0 -97 -43q29 -41 29 -108z" />
    <glyph glyph-name="uni10E5" unicode="&#x10e5;" horiz-adv-x="445" 
d="M395 -83q0 -82 -55.5 -119.5t-125.5 -37.5q-65 0 -122 41t-57 116q0 68 51 123h47q-8 -62 -8 -123q0 -53 16.5 -90t72.5 -37q44 0 70 29t26 98v324q0 51 -25.5 80t-59.5 29q-48 0 -62 -24.5t-14 -69.5q1 -28 7 -69h-48q-37 42 -37 86q0 48 39.5 77.5t112.5 29.5
q53 0 87 -36v292l85 14v-733z" />
    <glyph glyph-name="uni10E6" unicode="&#x10e6;" horiz-adv-x="625" 
d="M590 228q0 -103 -96 -191h-41q50 74 50 189q0 56 -17.5 90t-55.5 34q-40 0 -64.5 -29.5t-24.5 -75.5l-5 -92h-46l-5 92q0 46 -26 75.5t-69 29.5q-45 0 -55 -34.5t-10 -116.5q0 -162 150 -234q187 -101 195 -205h-94q-27 139 -113 154q-73 -2 -156 -64v68l121 25v10
q-193 77 -193 247q0 93 45 136.5t110 43.5q73 0 122 -86q41 86 118 86q74 0 117 -38.5t43 -113.5z" />
    <glyph glyph-name="uni10E7" unicode="&#x10e7;" horiz-adv-x="435" 
d="M395 -92q0 -69 -48.5 -108.5t-131.5 -39.5q-67 0 -123.5 38.5t-56.5 109.5q0 50 46 96h51q-7 -50 -7 -96q0 -66 23 -92t67 -26q52 0 73.5 26.5t21.5 91.5v191q-44 -23 -90 -23q-81 0 -125.5 38t-44.5 112q0 98 92 157h65q-71 -68 -71 -158q0 -47 13 -84.5t70 -37.5
q48 0 69.5 23t21.5 99v152h85v-469z" />
    <glyph glyph-name="uni10E8" unicode="&#x10e8;" horiz-adv-x="481" 
d="M161 190q0 -75 16 -117.5t73 -42.5q55 0 73 42.5t18 117.5q0 74 -20.5 117t-71.5 43q-54 0 -71 -43t-17 -117zM431 190q0 -98 -53 -144t-128 -46q-67 0 -123 46t-56 144q0 93 46 141.5t132 48.5q55 0 92 -37v205q1 71 -43 71q-57 0 -57 -71v-73h-49v73q0 71 -55 71
q-42 0 -42 -62v-46h-60v61q0 27 28.5 52t67.5 25q55 0 86 -48q32 48 80 48q68 0 101 -31t33 -89v-339z" />
    <glyph glyph-name="uni10E9" unicode="&#x10e9;" horiz-adv-x="445" 
d="M251 442q17 53 17 97q0 35 -16.5 57.5t-58.5 22.5q-38 0 -48 -21t-10 -78v-177q48 37 93 37q74 0 128 -42t54 -120q0 -107 -109 -223h-59q78 76 78 222q0 61 -18 97t-74 36q-42 0 -67.5 -28.5t-25.5 -109.5v-212h-85v481q0 88 37.5 128t107.5 40q63 0 104 -30.5t41 -81.5
q0 -47 -49 -95h-40z" />
    <glyph glyph-name="uni10EA" unicode="&#x10ea;" horiz-adv-x="512" 
d="M463 230q0 -69 -128 -117v-7q142 -43 142 -145q0 -83 -61 -142t-149 -59q-116 0 -174 84t-58 240q0 162 67 292h69q-45 -108 -45 -293q0 -135 31 -214t113 -79q60 1 88 46.5t28 124.5q0 71 -30.5 102t-64.5 31l-61 -5v40l61 -5q34 0 57 28.5t23 78.5q0 55 -50.5 83
t-54.5 66h73q0 -37 62 -67t62 -83z" />
    <glyph glyph-name="uni10EB" unicode="&#x10eb;" horiz-adv-x="445" 
d="M310 190q0 78 -23 119t-72 41q-58 0 -74 -48.5t-16 -111.5q0 -80 19 -120t70 -40q52 0 74 42.5t22 117.5zM395 190q0 -96 -51.5 -143t-129.5 -47q-79 0 -129 47.5t-50 142.5q0 94 49 142t128 48q56 0 98 -39v294l85 14v-459z" />
    <glyph glyph-name="uni10EC" unicode="&#x10ec;" horiz-adv-x="459" 
d="M327 240q0 63 -18.5 87t-59.5 24q-48 0 -72.5 -33t-23.5 -67q5 -118 14.5 -189.5t8.5 -250.5q38 126 94.5 210t56.5 219zM416 227q0 -106 -104.5 -245t-114.5 -222l-57 -1q-1 82 -54.5 376.5t-53.5 378.5q-2 67 31 100t97 33q47 0 81 -41q22 41 81 41q55 1 81 -22t26 -53
v-61h-59v48q0 61 -55 61q-52 0 -52 -55v-89h-43v90q0 54 -62 54q-22 0 -35.5 -21t-11.5 -87q2 -37 8.5 -75t16.5 -114q45 57 110 57t117.5 -32.5t52.5 -120.5z" />
    <glyph glyph-name="uni10ED" unicode="&#x10ed;" horiz-adv-x="425" 
d="M98 241q0 -44 16.5 -58.5t42.5 -14.5h44l10 151h-55q-25 0 -41.5 -16t-16.5 -62zM395 -77q0 -77 -50.5 -120t-135.5 -43q-74 0 -124 44t-50 114q0 68 46 122h55q-11 -63 -11 -122q0 -65 16 -96.5t67 -31.5q54 0 75.5 35.5t21.5 97.5q0 79 -51 127t-51 92h-56
q-42 0 -79.5 21.5t-37.5 78.5q0 61 37 81.5t79 20.5h67l8 74q14 77 -42 135.5t-48 112.5l100 -25q-11 -64 35 -111.5t35 -105.5l-9 -80h92v-25h-96l-9 -151h100v-26h-98q0 -34 57 -91t57 -128z" />
    <glyph glyph-name="uni10EE" unicode="&#x10ee;" horiz-adv-x="445" 
d="M135 190q0 -75 22 -117.5t75 -42.5q50 0 69 43t19 117q0 57 -16 108.5t-73 51.5q-50 0 -73 -41t-23 -119zM50 650l85 -14v-295q35 39 99 39q79 0 127.5 -48t48.5 -142q0 -95 -49.5 -142.5t-128.5 -47.5q-78 0 -130 47t-52 143v460z" />
    <glyph glyph-name="uni10EF" unicode="&#x10ef;" horiz-adv-x="381" 
d="M346 57h-62l-79 74l-92 -115q130 -50 130 -118q0 -65 -70.5 -101.5t-137.5 -36.5v33q54 0 87 31t33 72q0 82 -97 111l112 151l-134 124h66l96 -93q43 60 43 109q0 47 -33 47h-21v35h27q107 0 107 -78q0 -50 -90 -139z" />
    <glyph glyph-name="uni10F0" unicode="&#x10f0;" horiz-adv-x="430" 
d="M395 133q0 -64 -53.5 -98.5t-127.5 -34.5q-83 0 -131 38t-48 88q0 39 21 69h75q-6 -37 -6 -67q0 -32 17 -65t72 -33q56 0 73.5 28t17.5 75q0 64 -42.5 103t-124.5 51v22q92 -13 130 -31q20 8 20 58q0 90 -151 104v22q76 -4 116 -22q17 -3 17 57q0 74 -64 94.5t-64 57.5
h77q0 -43 70.5 -63.5t70.5 -75.5q0 -51 -74 -75v-6q91 -36 91 -84q0 -49 -76 -74v-7q94 -56 94 -131z" />
    <glyph glyph-name="figuredash" unicode="&#x2012;" horiz-adv-x="603" 
d="M632 186h-632v51h632v-51z" />
    <glyph glyph-name="endash" unicode="&#x2013;" 
d="M508 148h-517v36h517v-36z" />
    <glyph glyph-name="emdash" unicode="&#x2014;" horiz-adv-x="1000" 
d="M1009 148h-1018v36h1018v-36z" />
    <glyph glyph-name="quoteleft" unicode="&#x2018;" horiz-adv-x="333" 
d="M217 604v-21q-50 -30 -68 -56q-13 -19 -13 -45q0 -15 6 -23q5 -7 12 -7q5 0 14 3q13 5 21 5q20 0 35 -15t15 -37q0 -24 -15 -38q-21 -19 -49 -19q-33 0 -59 28t-26 69q0 58 43 105q29 31 84 51z" />
    <glyph glyph-name="quoteright" unicode="&#x2019;" horiz-adv-x="333" 
d="M116 351v23q51 30 69 56q12 18 12 44q0 15 -5 23q-6 7 -13 7q-5 0 -14 -3q-13 -5 -21 -5q-19 0 -34.5 15t-15.5 37q0 24 15 38q21 18 49 18q33 0 59 -27.5t26 -68.5q0 -58 -43 -105q-29 -31 -84 -52z" />
    <glyph glyph-name="quotesinglbase" unicode="&#x201a;" horiz-adv-x="333" 
d="M99 -238v21q50 17 77.5 52t27.5 74q0 9 -4 15q-4 5 -7 5q-5 0 -23 -10q-9 -4 -19 -4q-24 0 -38 14t-14 39q0 24 18 41t45 17q32 0 57 -28t25 -75q0 -50 -35 -93t-110 -68z" />
    <glyph glyph-name="quotedblleft" unicode="&#x201c;" horiz-adv-x="444" 
d="M198 721v-20q-43 -22 -61.5 -46.5t-18.5 -53.5q0 -17 5 -23q4 -7 11 -7q6 0 17 3.5t19 3.5q20 0 35 -14.5t15 -36.5q0 -23 -18 -40t-45 -17q-32 0 -58.5 28.5t-26.5 69.5q0 49 32.5 91t93.5 62zM392 720v-19q-49 -28 -64.5 -50.5t-15.5 -52.5q0 -14 5 -21q5 -6 11 -6
q5 0 16 3.5t22 3.5q20 0 35 -14t15 -35q0 -24 -19 -42t-46 -18q-33 0 -58.5 28t-25.5 70q0 51 32.5 93t92.5 60z" />
    <glyph glyph-name="quotedblright" unicode="&#x201d;" horiz-adv-x="444" 
d="M56 473v21q49 28 64.5 50.5t15.5 52.5q0 14 -5 20q-5 7 -11 7q-5 0 -16 -4t-21 -4q-21 0 -35.5 15t-14.5 36q0 23 18.5 40.5t45.5 17.5q32 0 58.5 -27.5t26.5 -70.5q0 -51 -33 -93.5t-93 -60.5zM255 473v21q42 22 61 46.5t19 53.5q0 17 -5 24q-5 6 -11 6t-17 -4t-19 -4
q-20 0 -35 15.5t-15 36.5q0 23 18 40t44 17q34 0 60 -28.5t26 -69.5q0 -49 -32.5 -91.5t-93.5 -62.5z" />
    <glyph glyph-name="quotedblbase" unicode="&#x201e;" horiz-adv-x="444" 
d="M56 -152v21q49 28 64.5 50.5t15.5 52.5q0 14 -5 20q-5 7 -11 7q-5 0 -16 -4t-21 -4q-21 0 -35.5 15t-14.5 36q0 23 18.5 40.5t45.5 17.5q32 0 58.5 -27.5t26.5 -70.5q0 -51 -33 -93.5t-93 -60.5zM255 -152v21q42 22 61 46.5t19 53.5q0 17 -5 24q-5 6 -11 6t-17 -4t-19 -4
q-20 0 -35 15.5t-15 36.5q0 23 18 40t44 17q34 0 60 -28.5t26 -69.5q0 -49 -32.5 -91.5t-93.5 -62.5z" />
    <glyph glyph-name="dagger" unicode="&#x2020;" 
d="M256 -279h-18q-2 213 -16 343q-10 97 -34 185q25 21 36 45t14 70q-32 -3 -65 -17q-51 -21 -74 -21q-22 0 -36 13t-14 33q0 21 14.5 35t36.5 14q12 0 22 -3q5 -2 51 -22q30 -12 65 -14q-1 20 -4 30q-3 15 -14 42q-27 62 -27 95q0 28 16.5 45.5t38.5 17.5q21 0 37 -18.5
t16 -44.5q0 -15 -4 -30q-5 -19 -22 -61t-19 -76q35 3 64 14q49 19 56 21q11 3 22 3q24 0 38.5 -13.5t14.5 -34.5q0 -19 -14.5 -33t-36.5 -14q-26 0 -80 23q-24 10 -34 12.5t-30 3.5q2 -45 13 -70t36 -45q-24 -90 -33 -178t-16 -350z" />
    <glyph glyph-name="bullet" unicode="&#x2022;" horiz-adv-x="350" 
d="M177 380q51 0 87 -36t36 -86q0 -51 -36 -87t-87 -36t-86.5 36t-35.5 87q0 50 35.5 86t86.5 36z" />
    <glyph glyph-name="ellipsis" unicode="&#x2026;" horiz-adv-x="1000" 
d="M167 22q22 0 38 -16t16 -38q0 -23 -16 -39t-38 -16q-23 0 -39 16t-16 39q0 22 16 38t39 16zM500 22q22 0 38 -16t16 -38q0 -23 -16 -39t-38 -16t-38 16t-16 39q0 22 16 38t38 16zM833 22q23 0 39 -16t16 -38q0 -23 -16 -39t-39 -16q-22 0 -38 16t-16 39q0 22 16 38t38 16
z" />
    <glyph glyph-name="guilsinglleft" unicode="&#x2039;" horiz-adv-x="333" 
d="M275 -77h-28l-189 231l189 229h28l-119 -229z" />
    <glyph glyph-name="guilsinglright" unicode="&#x203a;" horiz-adv-x="333" 
d="M56 383h28l193 -230l-193 -230h-28l119 230z" />
    <glyph glyph-name="Euro" unicode="&#x20ac;" 
d="M414 287h-281q-1 -21 -1 -41h269l-11 -38h-257q4 -103 41 -172q43 -80 117 -80q65 0 109 34q27 20 67 76l15 -10q-42 -66 -76 -94q-56 -47 -135 -47q-112 0 -173 94q-51 76 -60 199h-49l11 38h36v8q0 15 1 33h-48l11 38h41q17 116 79 191q72 87 184 87q83 0 166 -43v-146
h-19q-13 157 -147 157q-77 0 -122 -82q-35 -63 -46 -164h289z" />
    </font>
</defs>
</svg>
